<?xml version="1.0" encoding="utf-8"?>
<!-- Generator: Adobe Illustrator 18.0.0, SVG Export Plug-In . SVG Version: 6.00 Build 0)  -->
<!DOCTYPE svg PUBLIC "-//W3C//DTD SVG 1.1//EN" "http://www.w3.org/Graphics/SVG/1.1/DTD/svg11.dtd">
<svg version="1.1" id="Layer_1" xmlns="http://www.w3.org/2000/svg" xmlns:xlink="http://www.w3.org/1999/xlink" x="0px" y="0px"
	 viewBox="172.5 4.5 10.3 10.5" enable-background="new 172.5 4.5 10.3 10.5" xml:space="preserve">
<path fill="#F2F2F2" d="M177.9,6.8c-0.1-0.1-0.3-0.1-0.4,0l-3.2,2.7c-0.2,0.1-0.3,0.3-0.3,0.5v3.2c0,0.2,0.1,0.3,0.3,0.3h1.8
	c0.2,0,0.3-0.1,0.3-0.3v-2.7c0-0.2,0.1-0.3,0.3-0.3h2c0.2,0,0.3,0.1,0.3,0.3v2.7c0,0.2,0.1,0.3,0.3,0.3h1.7c0.2,0,0.3-0.1,0.3-0.3
	V10c0-0.2-0.1-0.4-0.2-0.5L177.9,6.8z M182.6,8.5l-1.2-1.1v-2c0-0.2-0.1-0.3-0.3-0.3h-0.8c-0.2,0-0.3,0.1-0.3,0.3v0.8l-1.8-1.6
	c-0.2-0.2-0.6-0.2-0.8,0l-4.5,3.8c-0.3,0.2-0.3,0.6,0,0.9c0.1,0.1,0.6,0.3,0.9,0l4.1-3.5l4.1,3.5c0.3,0.2,0.6,0.2,0.9,0
	C182.9,9.1,182.9,8.7,182.6,8.5z"/>
</svg>
