<?xml version="1.0" encoding="utf-8"?>
<!-- Generator: Adobe Illustrator 18.0.0, SVG Export Plug-In . SVG Version: 6.00 Build 0)  -->
<!DOCTYPE svg PUBLIC "-//W3C//DTD SVG 1.1//EN" "http://www.w3.org/Graphics/SVG/1.1/DTD/svg11.dtd">
<svg version="1.1" id="Layer_1" xmlns="http://www.w3.org/2000/svg" xmlns:xlink="http://www.w3.org/1999/xlink" x="0px" y="0px"
	 viewBox="238.6 0 9.9 10" enable-background="new 238.6 0 9.9 10" xml:space="preserve">
<g>
	<g>
		<g>
			<g>
				<rect x="243.6" y="5.2" fill="#F2F2F2" width="0.2" height="0.7"/>
			</g>
		</g>
	</g>
	<g>
		<path fill="#F2F2F2" d="M243.4,0.4c-0.5,0-0.9,0.4-0.9,0.9s0.4,1,0.9,1c0.5,0,0.9-0.5,0.9-1S243.9,0.4,243.4,0.4z"/>
		<path fill="#F2F2F2" d="M244,2.5L243.4,4l-0.5-1.5c-0.9,0-1.3,0.9-1.3,1.8h3.7C245.3,3.2,244.8,2.5,244,2.5z"/>
		<polygon fill="#F2F2F2" points="243.1,2.7 243.4,3.5 243.7,2.7 243.4,2.4 		"/>
	</g>
	<path fill="#F2F2F2" d="M240.1,6.5c-0.4,0-0.7,0.3-0.7,0.8c0,0.5,0.3,0.9,0.7,0.9c0.4,0,0.7-0.4,0.7-0.9
		C240.8,6.8,240.5,6.5,240.1,6.5z"/>
	<path fill="#F2F2F2" d="M240.5,8.1L240,9.3l-0.4-1.2c-0.7,0-1,0.7-1,1.5h3C241.7,8.8,241.3,8.1,240.5,8.1z"/>
	<polygon fill="#F2F2F2" points="239.9,8.4 240.1,9 240.3,8.4 240.1,8.1 	"/>
	<path fill="#F2F2F2" d="M243.5,6.5c-0.4,0-0.7,0.3-0.7,0.8c0,0.5,0.3,0.9,0.7,0.9s0.7-0.4,0.7-0.9C244.1,6.8,243.9,6.5,243.5,6.5z"
		/>
	<path fill="#F2F2F2" d="M244,8.1l-0.5,1.2l-0.4-1.2c-0.7,0-1,0.7-1,1.5h3C245,8.8,244.6,8.1,244,8.1z"/>
	<polygon fill="#F2F2F2" points="243.3,8.4 243.5,9 243.8,8.4 243.5,8.1 	"/>
	<path fill="#F2F2F2" d="M246.9,6.5c-0.4,0-0.7,0.3-0.7,0.8c0,0.5,0.3,0.9,0.7,0.9c0.4,0,0.7-0.4,0.7-0.9
		C247.6,6.8,247.3,6.5,246.9,6.5z"/>
	<path fill="#F2F2F2" d="M247.4,8.1l-0.5,1.2l-0.4-1.2c-0.7,0-1,0.7-1,1.5h3C248.4,8.8,248,8.1,247.4,8.1z"/>
	<polygon fill="#F2F2F2" points="246.7,8.4 246.9,9 247.2,8.4 246.9,8.1 	"/>
	<g>
		<g>
			<rect x="240" y="5" fill="#F2F2F2" width="0.3" height="0.9"/>
		</g>
		<g>
			<rect x="246.8" y="5" fill="#F2F2F2" width="0.3" height="0.9"/>
		</g>
		<g>
			<rect x="240" y="5" fill="#F2F2F2" width="7" height="0.3"/>
		</g>
	</g>
</g>
</svg>
