<?xml version="1.0" encoding="utf-8"?>
<!-- Generator: Adobe Illustrator 18.0.0, SVG Export Plug-In . SVG Version: 6.00 Build 0)  -->
<!DOCTYPE svg PUBLIC "-//W3C//DTD SVG 1.1//EN" "http://www.w3.org/Graphics/SVG/1.1/DTD/svg11.dtd">
<svg version="1.1" id="Layer_1" xmlns="http://www.w3.org/2000/svg" xmlns:xlink="http://www.w3.org/1999/xlink" x="0px" y="0px"
	 viewBox="172.5 4.5 10.3 10.5" enable-background="new 172.5 4.5 10.3 10.5" xml:space="preserve">
<g id="CONTACTS">
	<path id="phone_5_" fill="#F2F2F2" d="M180.6,5.1c-0.3-0.4-0.7-0.6-1.1-0.6h-3.3c-0.4,0-0.9,0.2-1.1,0.6c-0.3,0.3-0.4,0.7-0.4,1.2
		v7c0,0.4,0.1,0.9,0.4,1.2c0.3,0.4,0.7,0.6,1.1,0.6h3.3c0.4,0,0.9-0.2,1.1-0.6c0.2-0.3,0.4-0.7,0.4-1.2v-7
		C181,5.8,180.9,5.4,180.6,5.1z M176.9,5.1h1.9c0.1,0,0.1,0,0.1,0.1c0,0.1,0,0.1-0.1,0.1h-1.9c-0.1,0-0.1,0-0.1-0.1
		C176.8,5.2,176.8,5.1,176.9,5.1z M177.8,14.6c-0.2,0-0.4-0.2-0.4-0.4c0-0.2,0.2-0.4,0.4-0.4s0.4,0.2,0.4,0.4
		C178.2,14.5,178,14.6,177.8,14.6z M180.3,13.5h-5V6h5V13.5z"/>
	<g id="people_2_">
		<g id="men_at_the_back_1_">
			<g id="right_1_">
				<ellipse id="head_18_" fill="#F2F2F2" cx="179.2" cy="9.1" rx="0.4" ry="0.5"/>
				<g>
					<path fill="#F2F2F2" d="M179.7,10c-0.1-0.2-0.3-0.3-0.5-0.3c-0.2,0-0.3,0.1-0.5,0.2c0,0,0,0,0,0.1c0.2,0.2,0.3,0.5,0.3,0.9h0.7
						c0.1,0,0.1,0,0.1-0.1c0,0,0,0,0-0.1C179.9,10.4,179.8,10.2,179.7,10z"/>
				</g>
			</g>
			<g id="left_1_">
				<ellipse id="head_17_" fill="#F2F2F2" cx="176.5" cy="9.1" rx="0.4" ry="0.5"/>
				<g>
					<path fill="#F2F2F2" d="M176.9,10C176.9,10,176.9,10,176.9,10c-0.1-0.2-0.3-0.3-0.4-0.3c-0.2,0-0.4,0.1-0.5,0.3
						c-0.1,0.2-0.2,0.4-0.2,0.7c0,0,0,0,0,0.1c0,0.1,0.1,0.1,0.1,0.1h0.7C176.6,10.5,176.7,10.2,176.9,10z"/>
				</g>
			</g>
		</g>
		<g id="main_person_1_">
			<path fill="#F2F2F2" d="M177.8,9.7c-0.3,0-0.5,0.1-0.7,0.4c-0.2,0.2-0.3,0.6-0.3,0.9c0,0,0,0.1,0,0.1c0,0.1,0.1,0.1,0.2,0.1h1.6
				c0.1,0,0.2-0.1,0.2-0.1c0,0,0-0.1,0-0.1c0-0.3-0.1-0.7-0.3-0.9C178.3,9.9,178.1,9.7,177.8,9.7z"/>
			<ellipse id="head_16_" fill="#F2F2F2" cx="177.8" cy="8.9" rx="0.6" ry="0.6"/>
		</g>
	</g>
</g>
</svg>
