<?xml version="1.0" encoding="utf-8"?>
<!-- Generator: Adobe Illustrator 18.0.0, SVG Export Plug-In . SVG Version: 6.00 Build 0)  -->
<!DOCTYPE svg PUBLIC "-//W3C//DTD SVG 1.1//EN" "http://www.w3.org/Graphics/SVG/1.1/DTD/svg11.dtd">
<svg version="1.1" id="Layer_1" xmlns="http://www.w3.org/2000/svg" xmlns:xlink="http://www.w3.org/1999/xlink" x="0px" y="0px"
	 viewBox="172.5 4.5 10.3 10.5" enable-background="new 172.5 4.5 10.3 10.5" xml:space="preserve">
<g>
	<path fill-rule="evenodd" clip-rule="evenodd" fill="#F2F2F2" d="M177.2,7.3h5.1c0.4,0,0.6,0.3,0.6,0.7l-0.6,4.3
		c-0.1,0.4-0.4,0.7-0.8,0.7h-5.1c-0.4,0-0.6-0.3-0.6-0.7l0.6-4.3C176.4,7.6,176.8,7.3,177.2,7.3L177.2,7.3z M181.7,12l0.2-1.4
		c0-0.1,0-0.1-0.1-0.2c0,0-0.1-0.1-0.2-0.1c-0.1,0-0.2,0-0.2,0.1l0.1-0.4h-0.4l-0.3,1.9h0.4l0.2-1.3c0,0,0-0.1,0.1-0.1
		c0,0,0.1,0,0.1,0.1l-0.2,1.3H181.7L181.7,12z M178.3,12l0.1-0.5h-1l1.2-1.8c0.1-0.1,0.1-0.2,0.2-0.4c0.1-0.4,0.1-0.7,0-0.9
		c-0.1-0.2-0.3-0.3-0.7-0.3c-0.6,0-1,0.2-1.1,0.7l-0.1,0.7h0.7l0.1-0.6c0-0.1,0.1-0.2,0.2-0.2c0.1,0,0.1,0.1,0.1,0.3
		c-0.1,0.3-0.2,0.6-0.3,0.8l-1.2,1.7l-0.1,0.5H178.3L178.3,12z M180.7,11.5l0.1-0.6h-0.4l0.5-2.7h-1.1l-1.3,2.8l-0.1,0.5h1.1
		l-0.1,0.5h0.8l0.1-0.5H180.7L180.7,11.5z M179.6,10.9l0.3-1.5l-0.6,1.5H179.6z"/>
	<path fill-rule="evenodd" clip-rule="evenodd" fill="#F2F2F2" d="M175.3,7.9l0.4,0.1c0.3-0.3,0.8-2.1,0.7-2.7L176,5.2
		c-0.2,0.5-0.3,0.9-0.4,1.4C175.4,7,175.3,7.4,175.3,7.9L175.3,7.9z M174.4,14.4l0.4,0.1c0.5-1,0.4-2.6,0.3-2.8l-0.5-0.1
		c-0.1,0.4-0.1,0.9-0.2,1.3C174.4,13.5,174.4,13.9,174.4,14.4L174.4,14.4z M173.6,14.3c-0.7-0.1-1.1-0.5-1.2-1c0-0.1,0-0.3,0-0.4
		c0,0,0,0,0,0c-0.1-2.4,0.2-4.6,1.2-6.8v0l0,0c0.1-0.1,0.1-0.2,0.2-0.4l0,0l0,0c0.3-0.5,0.8-0.7,1.5-0.6l0.4,0.1
		c-0.2,0.5-0.3,0.9-0.4,1.4c-0.1,0.4-0.2,0.9-0.3,1.3l-0.6-0.1c-0.4,1.3-0.6,2.5-0.6,3.8l0.6,0.1c-0.1,0.5-0.1,0.9-0.2,1.4
		c0,0.5-0.1,0.9-0.1,1.4L173.6,14.3z"/>
</g>
</svg>
