<?xml version="1.0" encoding="utf-8"?>
<!-- Generator: Adobe Illustrator 18.0.0, SVG Export Plug-In . SVG Version: 6.00 Build 0)  -->
<!DOCTYPE svg PUBLIC "-//W3C//DTD SVG 1.1//EN" "http://www.w3.org/Graphics/SVG/1.1/DTD/svg11.dtd">
<svg version="1.1" id="Layer_1" xmlns="http://www.w3.org/2000/svg" xmlns:xlink="http://www.w3.org/1999/xlink" x="0px" y="0px"
	 viewBox="240.4 -0.8 10 10.8" enable-background="new 240.4 -0.8 10 10.8" xml:space="preserve">
<path fill="none" d="M245.4,1.4c-0.4-0.3-0.9-0.5-1.3-0.5c-0.7,0-1.2,0.3-1.6,0.8c-0.6,0.7-0.7,1.7-0.2,2.5l0,0l0,0
	c0.3-0.4,0.7-0.7,1.1-0.7l0.6,1.6l0,0l0,0l0,0c0,0,0,0,0.1,0l0,0l0,0l0.6-1.6c0.5,0,0.9,0.2,1.1,0.6l0,0l0,0l0,0l0.1-0.1
	c0.1-0.1,0.1-0.2,0.1-0.4C246.2,2.7,246,1.8,245.4,1.4z M244.1,4.7l-0.3-1l0.3-0.4l0.3,0.4L244.1,4.7z M244.1,3.2
	c-0.6,0-1-0.6-1-1.1c0-0.6,0.4-1,1-1c0.6,0,1,0.5,1,1C245,2.6,244.5,3.2,244.1,3.2z"/>
<path fill="#F2F2F2" d="M244.1,1c-0.6,0-1,0.5-1,1s0.4,1.1,1,1.1c0.6,0,1-0.6,1-1.1S244.5,1,244.1,1z"/>
<path fill="#F2F2F2" d="M245.8,3.9c-0.3-0.4-0.7-0.6-1.1-0.6L244.1,5l0,0l0,0l0,0c0.2,0,0.3,0,0.4-0.1h0.1c0.2-0.1,0.5-0.2,0.7-0.3
	c0.1-0.1,0.3-0.2,0.4-0.4C245.7,4.2,245.8,4.1,245.8,3.9C245.8,4,245.8,4,245.8,3.9C245.8,4,245.8,4,245.8,3.9z"/>
<path fill="#F2F2F2" d="M244,5l-0.6-1.6c-0.5,0-0.9,0.3-1.1,0.7l0,0c0.1,0.1,0.2,0.3,0.3,0.4l0.1,0.1C243,4.9,243.5,5,244,5
	C244,5.1,244,5.1,244,5L244,5L244,5z"/>
<polygon fill="#F2F2F2" points="243.7,3.7 244.1,4.7 244.3,3.7 244.1,3.4 "/>
<path fill="#F2F2F2" d="M244.9,5.9C244.6,6,244.4,6,244.2,6h-0.1c0,0,0,0-0.1,0s-0.3,0-0.4,0c0,0,0,0-0.1,0s-0.2,0-0.2,0
	c-0.1,0-0.3-0.1-0.4-0.1v1.1c0,0.1,0.1,0.3,0.3,0.3h0.1v0.2v0.1v2c0,0.2,0.2,0.4,0.4,0.4s0.4-0.2,0.4-0.4c0,0.2,0.2,0.4,0.4,0.4
	c0.2,0,0.4-0.2,0.4-0.4v-2c0,0,0,0,0-0.1V7.4h0.1c0.1,0,0.1,0,0.2-0.1c0,0,0.1-0.1,0.1-0.2V5.8C245.1,5.8,245,5.8,244.9,5.9z"/>
<path fill="#F2F2F2" d="M249.8,6.9l-3-2.6c0.6-1.2,0.4-2.8-0.8-3.6c-1.2-1-3.1-1-4.2,0.4c-1,1.1-1,2.9,0.1,4
	c0.1,0.1,0.2,0.2,0.3,0.3c0.1,0.1,0.2,0.2,0.3,0.2c0.1,0.1,0.3,0.2,0.4,0.2c0.3,0.1,0.5,0.2,0.8,0.2l0,0c0.1,0,0.3,0,0.4,0
	c0.1,0,0.1,0,0.2,0c0.4,0,0.8-0.1,1.1-0.3l0,0h0.1c0,0,0.1,0,0.1-0.1c0.1-0.1,0.2-0.1,0.3-0.2l0.1,0.1l3,2.6c0.3,0.3,0.8,0.2,1-0.1
	C250.1,7.6,250.1,7.2,249.8,6.9z M244.6,5.1L244.6,5.1c-0.3,0-0.4,0.1-0.6,0.1H244c-0.5,0-1-0.2-1.3-0.5l-0.1-0.1
	c-0.1-0.1-0.3-0.3-0.4-0.4c-0.5-0.8-0.5-1.8,0.2-2.6c0.8-1,2.2-1,3.1-0.3c0.7,0.6,1,1.5,0.7,2.3c0,0.1-0.1,0.3-0.2,0.4
	c0,0.1-0.1,0.1-0.1,0.2c-0.1,0.1-0.1,0.2-0.2,0.3c-0.1,0.1-0.3,0.3-0.4,0.4C245.1,4.9,244.9,5,244.6,5.1z"/>
</svg>
