<?xml version="1.0" encoding="utf-8"?>
<!-- Generator: Adobe Illustrator 18.0.0, SVG Export Plug-In . SVG Version: 6.00 Build 0)  -->
<!DOCTYPE svg PUBLIC "-//W3C//DTD SVG 1.1//EN" "http://www.w3.org/Graphics/SVG/1.1/DTD/svg11.dtd">
<svg version="1.1" id="Layer_1" xmlns="http://www.w3.org/2000/svg" xmlns:xlink="http://www.w3.org/1999/xlink" x="0px" y="0px"
	 viewBox="172.5 4.5 10.3 10.5" enable-background="new 172.5 4.5 10.3 10.5" xml:space="preserve">
<g>
	<g>
		<g>
			<g>
				<g>
					<path fill="#F2F2F2" d="M179,7.2c0-0.2-0.1-0.3-0.3-0.3v0h-2.8v0c-0.2,0-0.3,0.1-0.3,0.3c0,0,0,0,0,0v2c0,0.2,0.2,0.3,0.3,0.3
						c0.2,0,0.3-0.1,0.3-0.3V8.4l0,0V7.6h0.1v2.1h1.8V7.6h0.1v0.8l0,0v0.8c0,0.2,0.2,0.3,0.3,0.3c0.2,0,0.3-0.1,0.3-0.3L179,7.2
						C179,7.2,179,7.2,179,7.2z"/>
				</g>
			</g>
			<g>
				<g>
					<circle fill="#F2F2F2" cx="177.3" cy="5.9" r="0.9"/>
				</g>
			</g>
			<g>
				<g>
					<path fill="#F2F2F2" d="M174.3,6.2L174.3,6.2L174.3,6.2c0.4,0,0.7-0.3,0.7-0.7c0-0.4-0.3-0.7-0.7-0.7h0h0
						c-0.4,0-0.7,0.3-0.7,0.7C173.6,5.9,173.9,6.2,174.3,6.2z M180.3,6.2L180.3,6.2L180.3,6.2c0.4,0,0.7-0.3,0.7-0.7
						c0-0.4-0.3-0.7-0.7-0.7h0h0c-0.4,0-0.7,0.3-0.7,0.7C179.5,5.9,179.9,6.2,180.3,6.2z M175.5,6.3L175.5,6.3l-2.3,0v0
						c-0.1,0-0.3,0.1-0.3,0.3v1.7c0,0.2,0.1,0.3,0.3,0.3h0h0c0.2,0,0.3-0.1,0.3-0.3V7h0.1v1.8h1.5V7h0.1v0.5h0v0.8
						c0,0.2,0.1,0.3,0.3,0.3h0V7.2c0-0.2,0.1-0.4,0.3-0.4V6.6C175.7,6.5,175.6,6.4,175.5,6.3z M181.4,6.3L181.4,6.3l-2.3,0v0
						c-0.1,0-0.3,0.1-0.3,0.3v0.1c0.2,0.1,0.3,0.2,0.3,0.4v1.4h0c0.2,0,0.3-0.1,0.3-0.3V7.5h0V7h0.1v1.8h1.5V7h0.1v1.3
						c0,0.2,0.1,0.3,0.3,0.3h0h0c0.2,0,0.3-0.1,0.3-0.3V6.6C181.7,6.5,181.6,6.4,181.4,6.3z"/>
				</g>
			</g>
		</g>
	</g>
	<g>
		<g>
			<path fill="#F2F2F2" d="M175.2,11.7h-2l-0.7,0.7l2.5,2.5l1.7-1.7L175.2,11.7L175.2,11.7z M175.6,12.8c0.2,0,0.4,0.2,0.4,0.4
				c0,0.2-0.2,0.4-0.4,0.4c-0.2,0-0.4-0.2-0.4-0.4C175.2,13,175.4,12.8,175.6,12.8z"/>
			<path fill="#F2F2F2" d="M179.4,11l0.1-0.3h-7.2c-0.2,0-0.3,0.1-0.3,0.3v0.1c0,0.2,0.1,0.3,0.3,0.3h6.9L179.4,11z"/>
			<path fill="#F2F2F2" d="M181.2,10.7c0.1-0.3,0.1-0.6-0.1-0.8l0,0c0,0,0,0,0,0l0,0c0,0,0,0-0.1,0l0,0l-0.2-0.1l0,0c0,0,0,0-0.1,0
				l0,0c0,0,0,0-0.1,0l0,0c-0.3,0-0.5,0.2-0.6,0.5l-0.1,0.2l0,0.1l-0.3,0.7l-0.2,0.5h-2.1l0,0h-1.7L177,13l0,0
				c0.1,0.1,0.2,0.2,0.4,0.2l2.5-0.1l0,0c0.2,0,0.5-0.2,0.6-0.5l0.6-1.5l0.1-0.2l0-0.1L181.2,10.7z"/>
			<path fill="#F2F2F2" d="M182.3,10.7h-0.8c0,0,0,0.1,0,0.1l-0.1,0.2l0,0.1l-0.1,0.2l-0.1,0.1h1.1c0.2,0,0.3-0.1,0.3-0.3v-0.1
				C182.6,10.8,182.5,10.7,182.3,10.7z"/>
		</g>
	</g>
</g>
</svg>
