<?xml version="1.0" encoding="utf-8"?>
<!-- Generator: Adobe Illustrator 18.0.0, SVG Export Plug-In . SVG Version: 6.00 Build 0)  -->
<!DOCTYPE svg PUBLIC "-//W3C//DTD SVG 1.1//EN" "http://www.w3.org/Graphics/SVG/1.1/DTD/svg11.dtd">
<svg version="1.1" id="Layer_1" xmlns="http://www.w3.org/2000/svg" xmlns:xlink="http://www.w3.org/1999/xlink" x="0px" y="0px"
	 viewBox="235.6 0.8 10 9.2" enable-background="new 235.6 0.8 10 9.2" xml:space="preserve">
<g>
	<g>
		<path fill="#F2F2F2" d="M240.7,7.3c-0.3,0-0.5,0.3-0.5,0.6c0,0.4,0.2,0.7,0.5,0.7c0.3,0,0.5-0.3,0.5-0.7
			C241.2,7.6,241,7.3,240.7,7.3z"/>
		<path fill="#F2F2F2" d="M241,8.7l-0.4,1.1l-0.4-1.1c-0.6,0-0.9,0.6-0.9,1.3h2.5C242,9.3,241.6,8.7,241,8.7z"/>
		<polygon fill="#F2F2F2" points="240.6,9 240.7,9.5 240.9,9 240.7,8.7 		"/>
	</g>
	<g>
		<path fill="#F2F2F2" d="M237.1,6.5c-0.3,0-0.5,0.3-0.5,0.6c0,0.4,0.2,0.7,0.5,0.7c0.3,0,0.5-0.3,0.5-0.7
			C237.6,6.8,237.4,6.5,237.1,6.5z"/>
		<path fill="#F2F2F2" d="M237.4,7.8L237,9l-0.4-1.1c-0.6,0-0.9,0.6-0.9,1.3h2.5C238.4,8.5,238,7.8,237.4,7.8z"/>
		<polygon fill="#F2F2F2" points="236.8,8.1 237,8.7 237.2,8.1 237,7.8 		"/>
	</g>
	<g>
		<path fill="#F2F2F2" d="M244.4,6.5c-0.3,0-0.5,0.3-0.5,0.6c0,0.4,0.2,0.7,0.5,0.7s0.5-0.3,0.5-0.7C244.8,6.8,244.6,6.5,244.4,6.5z
			"/>
		<path fill="#F2F2F2" d="M244.7,7.8L244.4,9L244,7.8c-0.6,0-0.9,0.6-0.9,1.3h2.5C245.6,8.5,245.3,7.8,244.7,7.8z"/>
		<polygon fill="#F2F2F2" points="244.2,8.1 244.4,8.7 244.6,8.1 244.4,7.8 		"/>
	</g>
</g>
<path fill="#F2F2F2" d="M241.5,5.4c-0.2-0.3-0.3-0.5-0.4-0.7h0.7V4.7l-1-1.3c0,0,0,0-0.1,0l-1,1.3v0.1h0.7c-0.2,0.5-0.9,1.5-2.3,2
	l0.1,0.3c1-0.4,1.7-1,2.1-1.5c0.2-0.3,0.3-0.5,0.4-0.7v2h0.3v-2c0.1,0.2,0.2,0.4,0.4,0.7c0.4,0.5,1,1.1,2.1,1.5l0.1-0.3
	C242.4,6.5,241.8,5.9,241.5,5.4z"/>
<polygon fill="#F2F2F2" points="242.4,1.4 242.7,1.8 241.1,3 240.2,2.3 238.5,3.4 238.8,3.8 240.2,2.8 241.1,3.3 242.8,1.9 
	243.2,2.4 243.4,1.7 243.6,1.1 243,1.2 "/>
</svg>
