<?xml version="1.0" encoding="utf-8"?>
<!-- Generator: Adobe Illustrator 18.0.0, SVG Export Plug-In . SVG Version: 6.00 Build 0)  -->
<!DOCTYPE svg PUBLIC "-//W3C//DTD SVG 1.1//EN" "http://www.w3.org/Graphics/SVG/1.1/DTD/svg11.dtd">
<svg version="1.1" id="Layer_1" xmlns="http://www.w3.org/2000/svg" xmlns:xlink="http://www.w3.org/1999/xlink" x="0px" y="0px"
	 viewBox="0 0 257 183.2" enable-background="new 0 0 257 183.2" xml:space="preserve">
<g id="assembly">
	<g id="assemblyLabel">
		<g>
			<path d="M99.3,8.2l5.5-2.7l3.5-1.7L104,3.5c-2.4-0.1-4.8-0.2-7.3-0.3L97,2h-1.8l0,0h-0.1H31.3h-0.1l0,0h-1.8l0.3,1.2
				c-2.4,0.1-4.9,0.2-7.3,0.3l-4.3,0.2l3.5,1.7l5.5,2.7l-4.6,4l-2.2,1.9l3.6-0.2c1.2-0.1,2.6-0.2,4-0.3c1.4-0.1,2.9-0.2,4.3-0.3
				l0.1,0.6h1.3h59.3h1.4l0.1-0.6c1.3,0.1,2.8,0.2,4.3,0.3c1.4,0.1,2.8,0.2,4,0.3l3.6,0.2l-2.2-1.9L99.3,8.2z"/>
			<path fill="#ECEDB7" d="M20.8,4.3l7.1,3.6L22.1,13c2.7-0.1,6.2-0.5,8.9-0.6l-1.9-8.5C26.3,4,23.5,4.2,20.8,4.3z"/>
			<path fill="#ECEDB7" d="M105.4,4.3c-2.7-0.1-5.4-0.3-8.2-0.4l-1.9,8.5c2.8,0.1,6.2,0.5,9,0.6l-5.9-5.2L105.4,4.3z"/>
			<polygon fill="#ECEDB7" points="96.3,2.7 29.9,2.7 29.9,2.7 32.3,13.1 94,13.1 96.4,2.7 			"/>
		</g>
		<text transform="matrix(1.103 0 0 1 43.0049 10.0101)" font-family="'Stencil'" font-size="5.4398">Assemblers</text>
	</g>
	<g id="testLabel">
		<g>
			<path d="M217.1,66.1l7.1-2.5l4.5-1.6l-5.6-0.2c-3.1-0.1-6.2-0.2-9.4-0.3l0.4-1.1h-2.3l0,0h-0.1h-82.5H129l0,0h-2.3l0.4,1.1
				c-3.2,0.1-6.3,0.2-9.4,0.3l-5.6,0.2l4.5,1.6l7.1,2.5l-5.9,3.7l-2.9,1.8l4.6-0.2c1.6-0.1,3.4-0.1,5.1-0.2c1.9-0.1,3.8-0.2,5.5-0.3
				l0.2,0.5h1.7h76.6h1.7l0.2-0.5c1.7,0.1,3.6,0.2,5.5,0.3c1.7,0.1,3.6,0.2,5.1,0.2l4.6,0.2l-2.9-1.8L217.1,66.1z"/>
			<path fill="#ECEDB7" d="M115.7,62.5l9.1,3.3l-7.6,4.8c3.5-0.1,8-0.4,11.6-0.5l-2.5-7.9C122.7,62.3,119.2,62.4,115.7,62.5z"/>
			<path fill="#ECEDB7" d="M225,62.5c-3.5-0.1-7-0.2-10.6-0.3l-2.5,7.9c3.6,0.1,8.1,0.4,11.6,0.5l-7.6-4.8L225,62.5z"/>
			<path fill="#ECEDB7" d="M213.2,61h-85.8c0,0,0,0,0,0l3.1,9.6h79.7L213.2,61C213.3,61,213.2,61,213.2,61z"/>
		</g>
		<text transform="matrix(1.1883 0 0 1 137 68.0443)" font-family="'Stencil'" font-size="5.0492">Quality Controllers</text>
	</g>
	<g id="cncLabel">
		<g>
			<path d="M246.4,130.9l7.1-2.5l4.5-1.6l-5.6-0.2c-3.1-0.1-6.2-0.2-9.4-0.3l0.4-1.1h-2.3l0,0H241h-82.5h-0.1l0,0h-2.3l0.4,1.1
				c-3.2,0.1-6.3,0.2-9.4,0.3l-5.6,0.2l4.5,1.6l7.1,2.5l-5.9,3.7l-2.9,1.8l4.6-0.2c1.6-0.1,3.4-0.1,5.1-0.2c1.9-0.1,3.8-0.2,5.5-0.3
				l0.2,0.5h1.7h76.6h1.7l0.2-0.5c1.7,0.1,3.6,0.2,5.5,0.3c1.7,0.1,3.6,0.2,5.1,0.2l4.6,0.2l-2.9-1.8L246.4,130.9z"/>
			<path fill="#ECEDB7" d="M145,127.2l9.1,3.3l-7.6,4.8c3.5-0.1,8-0.4,11.6-0.5l-2.5-7.9C152.1,127,148.5,127.1,145,127.2z"/>
			<path fill="#ECEDB7" d="M254.3,127.2c-3.5-0.1-7-0.2-10.6-0.3l-2.5,7.9c3.6,0.1,8.1,0.4,11.6,0.5l-7.6-4.8L254.3,127.2z"/>
			<path fill="#ECEDB7" d="M242.6,125.7h-85.8c0,0,0,0,0,0l3.1,9.6h79.7L242.6,125.7C242.6,125.7,242.6,125.7,242.6,125.7z"/>
		</g>
		<text transform="matrix(1.1883 0 0 1 162.2148 132.35)" font-family="'Stencil'" font-size="5.0492">cnc &amp; Line opearatives</text>
	</g>
	<g id="cnc" class='hidden'>
		<g>
			<g>
				<g>
					<path fill="#D9BB73" d="M201.2,165.6c0,0,2.4,1,1.8,2.4c-0.7,1.5-1.2,2.2-3.5,0.6C197.1,167.1,201.2,165.6,201.2,165.6z"/>
				</g>
				<g>
					<path fill="#D9BB73" d="M201.5,165.8c0,0-1.6-0.7-2-0.9c-1.6-0.9-4.4-3.7-5.6-4.4c-3.7-2.2-5.8-3-5.8-3l-2.3,2.9
						c0,0,2.5,1.6,6.9,3.2c2,0.7,6.1,4.2,6.1,4.2L201.5,165.8z"/>
				</g>
			</g>
		</g>
		<path fill="#E7D691" d="M162.4,169.6L162.4,169.6c0,0,2.3-5.2,4.6-6c5-1.7,5.8-3.2,5.8-3.2l-3-3c0,0-0.6,0.2-4.7,2.9
			c-3.1,2-4.8,5.1-5.2,8.2c0,0.4-0.5,2.6-0.3,3.2c0,0,0,0,0,0s0,0.1,0.1,0.3c0,0,0,0,0,0v0c0.2,0.8,0.8,2.5,2.2,2.3
			c1.8-0.4,2.7-0.7,1.6-3.8C163.1,170.1,162.8,169.7,162.4,169.6z"/>
		<path fill="#D9BB73" d="M182.8,154.6c0,0-3-1.3-3.2-2.3c-0.2-1-1.8-0.4-1.8-0.4h0c0,0-1.6-0.6-1.8,0.4c-0.2,1-3.2,2.3-3.2,2.3
			c0.6,0.9,4.7,4.4,5,4.4v0c0,0,0,0,0,0c0,0,0,0,0,0v0C178.2,159,182.2,155.6,182.8,154.6z"/>
		<path fill="#EB9B4C" d="M184.5,160.7c0-0.1,0-0.2,0-0.3c-0.4-3.6,3.7-1.7,2.3-3.3c-1.4-1.6-4-2.6-4-2.6s-1.4,2.7-4.9,2.7
			c-3.6,0-4.9-2.7-4.9-2.7s-2.4,1.1-4.4,2.4c-1.8,1.2-2.6,1.5-3.7,3c-0.1,0.1,0,0.6,0.5,2.2c1,3.5,5.3,1.1,5.3,1.1v0l0.2,1.4l14,0.1
			l-0.1-1.6L184.5,160.7z"/>
		<path fill="#FF8600" d="M192.3,159.3c-2.2-2-3.1-2.4-5.6-3.7c-1.9-1-4-1.2-4-1.2s-1.3,2.6-4.8,2.7v7.6l6.8,0.1l0.8-3.9
			c0,0,1.9,1,4.7,1.9C190.4,162.7,192.4,159.3,192.3,159.3z"/>
		<path fill="#CEA748" d="M180.4,153.5c0,0-0.4-0.4-0.6-0.6c-0.2-0.3-3.3,0.4-3.3,0.4s1,1.2,1.7,1
			C179.8,154.1,180.4,153.5,180.4,153.5z"/>
		<polygon fill="#24518B" points="177.9,183.2 184,183.2 184.6,174 184.6,174 185.1,164.3 177.7,164.3 177.5,175.5 177.8,175.7 		
			"/>
		<polygon fill="#295A98" points="171.8,183.2 177.9,183.2 178,172.8 178,164.3 170.5,164.3 171.4,177 		"/>
		<path fill="#E5D48F" d="M177.8,154c0,0-2.9-0.6-3.7-2.9c-0.8-2.3-0.4-4.7-0.4-4.7h4.1V154z"/>
		<path fill="#D9BB73" d="M177.8,154c0,0,2.9-0.6,3.7-2.9c0.8-2.3,0.4-4.7,0.4-4.7h-4.1V154z"/>
		<path fill="#EB9B4C" d="M183,145.8c-0.1-0.8-0.7-3.5-3.1-4.4v-0.1c-1.2-0.4-2.1-0.5-2.1-0.5c0,0-0.9,0.1-2.1,0.5v0.1
			c-2.4,0.9-3,3.7-3.1,4.4h-0.3v1.4h10.9v-1.4H183z"/>
		<path fill="#FF8600" d="M183,145.8c-0.1-0.8-0.7-3.5-3.1-4.4v-0.1c-1.2-0.4-2.1-0.5-2.1-0.5c0,0,0,0,0,0v6.4h5.4v-1.4H183z"/>
		<path fill="#EBCE7F" d="M175.8,141.4c0,0-0.6,0.7,0.6,3.9c-0.1,0.3-0.5,0.1-0.6-0.1c-0.9-1.5-1.2-3.1-1.2-3.1
			S174.9,141.6,175.8,141.4z"/>
		<path fill="#EB9B4C" d="M180,141.4c0,0,0.6,0.7-0.6,3.9c0.1,0.3,0.5,0.1,0.6-0.1c0.9-1.5,1.2-3.1,1.2-3.1S180.8,141.6,180,141.4z"
			/>
		<polygon opacity="0.5" fill="#FF8600" points="172.4,145.8 183.3,145.8 183.3,146.4 172.4,146.3 		"/>
		<polygon fill="#295A98" points="174.3,164.9 172.8,164.9 172.8,154 174.3,153.6 		"/>
		<polygon fill="#24518B" points="181.4,164.9 182.8,164.9 182.8,154 181.4,153.6 		"/>
		<rect x="171.9" y="160.7" fill="#295A98" width="11.9" height="4.9"/>
		<rect x="178" y="160.7" fill="#24518B" width="5.9" height="4.9"/>
		<circle fill="#E7D691" cx="173.5" cy="161.8" r="0.4"/>
		<circle fill="#D9BB73" cx="182.2" cy="161.8" r="0.4"/>
	</g>
	<g id="assemblers" class='hidden'>
		<g>
			<path fill="#D9BB73" d="M27,32.4c0,0-3-1.3-3.2-2.2c-0.2-1-1.7-0.4-1.7-0.4h0c0,0-1.5-0.6-1.7,0.4c-0.2,1-3.2,2.2-3.2,2.2
				c0.6,0.9,4.6,4.3,4.9,4.3v0c0,0,0,0,0,0c0,0,0,0,0,0v0C22.5,36.7,26.4,33.3,27,32.4z"/>
			<path fill="#EB9B4C" d="M32.6,40.8c0-0.1,0-0.2,0-0.3c-0.4-3.6-0.4-4.2-1.8-5.7c-1.3-1.6-3.9-2.6-3.9-2.6s-1.3,2.6-4.8,2.6
				c-3.5,0-4.8-2.6-4.8-2.6s-2.5,1-3.9,2.6c-1.3,1.6-1.4,2.2-1.8,5.7c0,0.1,0,0.2,0,0.3h3.5l0,0l0.2,1.4l13.6,0.1l0.4-1.5H32.6z"/>
			<path fill="#FF8600" d="M32.6,40.5c-0.4-3.6-0.4-4.2-1.8-5.7c-1.3-1.6-3.9-2.6-3.9-2.6s-1.3,2.5-4.6,2.6v7.4l6.6,0.1l0.4-1.5h3.3
				C32.6,40.7,32.6,40.6,32.6,40.5z"/>
			<path fill="#CEA748" d="M24.6,31.3c0,0-0.4-0.4-0.6-0.6c-0.2-0.3-3.2,0.4-3.2,0.4s0.9,1.1,1.7,1C24.1,31.9,24.6,31.3,24.6,31.3z"
				/>
			<polygon fill="#24518B" points="28.8,48.9 29.3,41.9 22.1,41.9 21.9,48.9 			"/>
			<polygon fill="#295A98" points="22.3,48.9 22.3,41.9 15.1,41.9 15.5,48.9 			"/>
			<path fill="#E5D48F" d="M22.2,31.8c0,0-2.8-0.6-3.6-2.8c-0.8-2.2-0.4-4.6-0.4-4.6h4V31.8z"/>
			<path fill="#D9BB73" d="M22.2,31.8c0,0,2.8-0.6,3.6-2.8c0.8-2.2,0.4-4.6,0.4-4.6h-4V31.8z"/>
			<path fill="#EB9B4C" d="M27.2,23.8c-0.1-0.7-0.6-3.5-3-4.3v-0.1c-1.2-0.4-2-0.4-2-0.4c0,0-0.8,0.1-2,0.4v0.1
				c-2.4,0.9-2.9,3.6-3,4.3h-0.3v1.4h10.6v-1.4H27.2z"/>
			<path fill="#FF8600" d="M27.2,23.8c-0.1-0.7-0.6-3.5-3-4.3v-0.1c-1.2-0.4-2-0.4-2-0.4c0,0,0,0,0,0v6.3h5.3v-1.4H27.2z"/>
			<path fill="#EBCE7F" d="M20.2,19.4c0,0-0.5,0.7,0.6,3.8c-0.1,0.3-0.5,0.1-0.6-0.1c-0.9-1.4-1.2-3.1-1.2-3.1S19.3,19.7,20.2,19.4z
				"/>
			<path fill="#EB9B4C" d="M24.2,19.4c0,0,0.5,0.7-0.6,3.8c0.1,0.3,0.5,0.1,0.6-0.1c0.9-1.4,1.2-3.1,1.2-3.1S25,19.7,24.2,19.4z"/>
			<polygon opacity="0.5" fill="#FF8600" points="16.9,23.8 27.5,23.8 27.5,24.3 16.9,24.3 			"/>
			<polygon fill="#295A98" points="18.7,42.4 17.3,42.4 17.3,31.8 18.7,31.4 			"/>
			<polygon fill="#24518B" points="25.6,42.4 27,42.4 27,31.8 25.6,31.4 			"/>
			<rect x="16.4" y="38.3" fill="#295A98" width="11.6" height="4.8"/>
			<rect x="22.3" y="38.3" fill="#24518B" width="5.7" height="4.8"/>
			<circle fill="#E7D691" cx="18" cy="39.4" r="0.4"/>
			<circle fill="#D9BB73" cx="26.4" cy="39.4" r="0.4"/>
		</g>
		<g>
			<path fill="#E7D691" d="M18,50.9c0,0,2.3,1.1,2.9-0.4c0.6-1.5,0.8-2.3-1.9-2.9C16.3,47,18,50.9,18,50.9z"/>
			<path fill="#E7D691" d="M18.3,51c0,0-3.5-1.6-4-1.7c-1.7-0.6-3.2-1.8-3.1-3.1c0.2-4.2,0.7-6.4,0.7-6.4l3.6-0.3c0,0,0.4,1.6-1.1,5
				c-0.8,1.9,3.5,3.1,3.5,3.1L18.3,51z"/>
		</g>
		<g>
			<g>
				<g>
					<path fill="#D9BB73" d="M26.2,50.9c0,0-2.3,1.1-2.9-0.4c-0.6-1.5-0.8-2.3,1.9-2.9C27.9,47,26.2,50.9,26.2,50.9z"/>
				</g>
				<g>
					<path fill="#D9BB73" d="M26,51c0,0,3.5-1.6,4-1.7c1.7-0.6,3.2-1.8,3.1-3.1c-0.2-4.2-0.7-6.4-0.7-6.4l-3.6-0.3
						c0,0-0.4,1.6,1.1,5c0.8,1.9-3.5,3.1-3.5,3.1L26,51z"/>
				</g>
			</g>
		</g>
		<path fill="#EB9B4C" d="M15.2,40.7l0.1,1.1h0.3v-2.4h-3.8c0,0.3-0.1,0.6-0.1,0.9c0,0.1,0,0.2,0,0.3L15.2,40.7L15.2,40.7z"/>
		<path fill="#FF8600" d="M32.6,40.5c0-0.3-0.1-0.7-0.1-0.9h-3.9l0.1,2.4H29l0.3-1.1h3.3C32.6,40.7,32.6,40.6,32.6,40.5z"/>
		<g>
			<path fill="#D9BB73" d="M63.9,32.4c0,0-3-1.3-3.2-2.2c-0.2-1-1.7-0.4-1.7-0.4h0c0,0-1.5-0.6-1.7,0.4c-0.2,1-3.2,2.2-3.2,2.2
				c0.6,0.9,4.6,4.3,4.9,4.3v0c0,0,0,0,0,0c0,0,0,0,0,0v0C59.4,36.7,63.3,33.3,63.9,32.4z"/>
			<path fill="#EB9B4C" d="M69.5,40.8c0-0.1,0-0.2,0-0.3c-0.4-3.6-0.4-4.2-1.8-5.7c-1.3-1.6-3.9-2.6-3.9-2.6s-1.3,2.6-4.8,2.6
				c-3.5,0-4.8-2.6-4.8-2.6s-2.5,1-3.9,2.6c-1.3,1.6-1.4,2.2-1.8,5.7c0,0.1,0,0.2,0,0.3H52l0,0l0.2,1.4l13.6,0.1l0.4-1.5H69.5z"/>
			<path fill="#FF8600" d="M69.4,40.5c-0.4-3.6-0.4-4.2-1.8-5.7c-1.3-1.6-3.9-2.6-3.9-2.6s-1.3,2.5-4.6,2.6v7.4l6.6,0.1l0.4-1.5h3.3
				C69.5,40.7,69.4,40.6,69.4,40.5z"/>
			<path fill="#CEA748" d="M61.5,31.3c0,0-0.4-0.4-0.6-0.6c-0.2-0.3-3.2,0.4-3.2,0.4s0.9,1.1,1.7,1C60.9,31.9,61.5,31.3,61.5,31.3z"
				/>
			<polygon fill="#24518B" points="65.7,48.9 66.1,41.9 58.9,41.9 58.7,48.9 			"/>
			<polygon fill="#295A98" points="59.1,48.9 59.1,41.9 51.9,41.9 52.4,48.9 			"/>
			<path fill="#E5D48F" d="M59,31.8c0,0-2.8-0.6-3.6-2.8c-0.8-2.2-0.4-4.6-0.4-4.6h4V31.8z"/>
			<path fill="#D9BB73" d="M59,31.8c0,0,2.8-0.6,3.6-2.8c0.8-2.2,0.4-4.6,0.4-4.6h-4V31.8z"/>
			<path fill="#EB9B4C" d="M64.1,23.8c-0.1-0.7-0.6-3.5-3-4.3v-0.1c-1.2-0.4-2-0.4-2-0.4c0,0-0.8,0.1-2,0.4v0.1
				c-2.4,0.9-2.9,3.6-3,4.3h-0.3v1.4h10.6v-1.4H64.1z"/>
			<path fill="#FF8600" d="M64.1,23.8c-0.1-0.7-0.6-3.5-3-4.3v-0.1c-1.2-0.4-2-0.4-2-0.4c0,0,0,0,0,0v6.3h5.3v-1.4H64.1z"/>
			<path fill="#EBCE7F" d="M57,19.4c0,0-0.5,0.7,0.6,3.8c-0.1,0.3-0.5,0.1-0.6-0.1c-0.9-1.4-1.2-3.1-1.2-3.1S56.2,19.7,57,19.4z"/>
			<path fill="#EB9B4C" d="M61.1,19.4c0,0,0.5,0.7-0.6,3.8c0.1,0.3,0.5,0.1,0.6-0.1c0.9-1.4,1.2-3.1,1.2-3.1S61.9,19.7,61.1,19.4z"
				/>
			<polygon opacity="0.5" fill="#FF8600" points="53.8,23.8 64.3,23.8 64.3,24.3 53.8,24.3 			"/>
			<polygon fill="#295A98" points="55.5,42.4 54.1,42.4 54.1,31.8 55.5,31.4 			"/>
			<polygon fill="#24518B" points="62.4,42.4 63.9,42.4 63.9,31.8 62.4,31.4 			"/>
			<rect x="53.2" y="38.3" fill="#295A98" width="11.6" height="4.8"/>
			<rect x="59.1" y="38.3" fill="#24518B" width="5.7" height="4.8"/>
			<circle fill="#E7D691" cx="54.8" cy="39.4" r="0.4"/>
			<circle fill="#D9BB73" cx="63.2" cy="39.4" r="0.4"/>
		</g>
		<g>
			<path fill="#E7D691" d="M54.9,50.9c0,0,2.3,1.1,2.9-0.4c0.6-1.5,0.8-2.3-1.9-2.9C53.2,47,54.9,50.9,54.9,50.9z"/>
			<path fill="#E7D691" d="M55.1,51c0,0-3.5-1.6-4-1.7c-1.7-0.6-3.2-1.8-3.1-3.1c0.2-4.2,0.7-6.4,0.7-6.4l3.6-0.3c0,0,0.4,1.6-1.1,5
				c-0.8,1.9,3.5,3.1,3.5,3.1L55.1,51z"/>
		</g>
		<g>
			<g>
				<g>
					<path fill="#D9BB73" d="M63.1,50.9c0,0-2.3,1.1-2.9-0.4c-0.6-1.5-0.8-2.3,1.9-2.9C64.8,47,63.1,50.9,63.1,50.9z"/>
				</g>
				<g>
					<path fill="#D9BB73" d="M62.8,51c0,0,3.5-1.6,4-1.7c1.7-0.6,3.2-1.8,3.1-3.1c-0.2-4.2-0.7-6.4-0.7-6.4l-3.6-0.3
						c0,0-0.4,1.6,1.1,5c0.8,1.9-3.5,3.1-3.5,3.1L62.8,51z"/>
				</g>
			</g>
		</g>
		<path fill="#EB9B4C" d="M52,40.7l0.1,1.1h0.3v-2.4h-3.8c0,0.3-0.1,0.6-0.1,0.9c0,0.1,0,0.2,0,0.3L52,40.7L52,40.7z"/>
		<path fill="#FF8600" d="M69.4,40.5c0-0.3-0.1-0.7-0.1-0.9h-3.9l0.1,2.4h0.3l0.3-1.1h3.3C69.5,40.7,69.4,40.6,69.4,40.5z"/>
		<g>
			<path fill="#D9BB73" d="M100.7,32.4c0,0-3-1.3-3.2-2.2c-0.2-1-1.7-0.4-1.7-0.4h0c0,0-1.5-0.6-1.7,0.4c-0.2,1-3.2,2.2-3.2,2.2
				c0.6,0.9,4.6,4.3,4.9,4.3v0c0,0,0,0,0,0c0,0,0,0,0,0v0C96.2,36.7,100.1,33.3,100.7,32.4z"/>
			<path fill="#EB9B4C" d="M106.3,40.8c0-0.1,0-0.2,0-0.3c-0.4-3.6-0.4-4.2-1.8-5.7c-1.3-1.6-3.9-2.6-3.9-2.6s-1.3,2.6-4.8,2.6
				c-3.5,0-4.8-2.6-4.8-2.6s-2.5,1-3.9,2.6c-1.3,1.6-1.4,2.2-1.8,5.7c0,0.1,0,0.2,0,0.3h3.5l0,0l0.2,1.4l13.6,0.1l0.4-1.5H106.3z"/>
			<path fill="#FF8600" d="M106.3,40.5c-0.4-3.6-0.4-4.2-1.8-5.7c-1.3-1.6-3.9-2.6-3.9-2.6s-1.3,2.5-4.6,2.6v7.4l6.6,0.1l0.4-1.5
				h3.3C106.3,40.7,106.3,40.6,106.3,40.5z"/>
			<path fill="#CEA748" d="M98.3,31.3c0,0-0.4-0.4-0.6-0.6c-0.2-0.3-3.2,0.4-3.2,0.4s0.9,1.1,1.7,1C97.8,31.9,98.3,31.3,98.3,31.3z"
				/>
			<polygon fill="#24518B" points="102.5,48.9 102.9,41.9 95.7,41.9 95.6,48.9 			"/>
			<polygon fill="#295A98" points="96,48.9 96,41.9 88.7,41.9 89.2,48.9 			"/>
			<path fill="#E5D48F" d="M95.8,31.8c0,0-2.8-0.6-3.6-2.8c-0.8-2.2-0.4-4.6-0.4-4.6h4V31.8z"/>
			<path fill="#D9BB73" d="M95.8,31.8c0,0,2.8-0.6,3.6-2.8c0.8-2.2,0.4-4.6,0.4-4.6h-4V31.8z"/>
			<path fill="#EB9B4C" d="M100.9,23.8c-0.1-0.7-0.6-3.5-3-4.3v-0.1c-1.2-0.4-2-0.4-2-0.4c0,0-0.8,0.1-2,0.4v0.1
				c-2.4,0.9-2.9,3.6-3,4.3h-0.3v1.4h10.6v-1.4H100.9z"/>
			<path fill="#FF8600" d="M100.9,23.8c-0.1-0.7-0.6-3.5-3-4.3v-0.1c-1.2-0.4-2-0.4-2-0.4c0,0,0,0,0,0v6.3h5.3v-1.4H100.9z"/>
			<path fill="#EBCE7F" d="M93.8,19.4c0,0-0.5,0.7,0.6,3.8c-0.1,0.3-0.5,0.1-0.6-0.1c-0.9-1.4-1.2-3.1-1.2-3.1S93,19.7,93.8,19.4z"
				/>
			<path fill="#EB9B4C" d="M97.9,19.4c0,0,0.5,0.7-0.6,3.8c0.1,0.3,0.5,0.1,0.6-0.1c0.9-1.4,1.2-3.1,1.2-3.1S98.7,19.7,97.9,19.4z"
				/>
			<polygon opacity="0.5" fill="#FF8600" points="90.6,23.8 101.2,23.8 101.2,24.3 90.6,24.3 			"/>
			<polygon fill="#295A98" points="92.4,42.4 90.9,42.4 90.9,31.8 92.4,31.4 			"/>
			<polygon fill="#24518B" points="99.3,42.4 100.7,42.4 100.7,31.8 99.3,31.4 			"/>
			<rect x="90.1" y="38.3" fill="#295A98" width="11.6" height="4.8"/>
			<rect x="96" y="38.3" fill="#24518B" width="5.7" height="4.8"/>
			<circle fill="#E7D691" cx="91.6" cy="39.4" r="0.4"/>
			<circle fill="#D9BB73" cx="100.1" cy="39.4" r="0.4"/>
		</g>
		<g>
			<path fill="#E7D691" d="M91.7,50.9c0,0,2.3,1.1,2.9-0.4c0.6-1.5,0.8-2.3-1.9-2.9C90,47,91.7,50.9,91.7,50.9z"/>
			<path fill="#E7D691" d="M92,51c0,0-3.5-1.6-4-1.7c-1.7-0.6-3.2-1.8-3.1-3.1c0.2-4.2,0.7-6.4,0.7-6.4l3.6-0.3c0,0,0.4,1.6-1.1,5
				c-0.8,1.9,3.5,3.1,3.5,3.1L92,51z"/>
		</g>
		<g>
			<g>
				<g>
					<path fill="#D9BB73" d="M99.9,50.9c0,0-2.3,1.1-2.9-0.4c-0.6-1.5-0.8-2.3,1.9-2.9C101.6,47,99.9,50.9,99.9,50.9z"/>
				</g>
				<g>
					<path fill="#D9BB73" d="M99.6,51c0,0,3.5-1.6,4-1.7c1.7-0.6,3.2-1.8,3.1-3.1c-0.2-4.2-0.7-6.4-0.7-6.4l-3.6-0.3
						c0,0-0.4,1.6,1.1,5c0.8,1.9-3.5,3.1-3.5,3.1L99.6,51z"/>
				</g>
			</g>
		</g>
		<polygon fill="#2E2E2E" points="103.6,43.8 102.2,43.8 102.2,46 103.6,46 104.2,45.7 104.2,44.2 		"/>
		<path fill="#EB9B4C" d="M88.8,40.7l0.1,1.1h0.3v-2.4h-3.8c0,0.3-0.1,0.6-0.1,0.9c0,0.1,0,0.2,0,0.3L88.8,40.7L88.8,40.7z"/>
		<path fill="#FF8600" d="M106.3,40.5c0-0.3-0.1-0.7-0.1-0.9h-3.9l0.1,2.4h0.3l0.3-1.1h3.3C106.3,40.7,106.3,40.6,106.3,40.5z"/>
	</g>
	<g id="tester" class='hidden'>
		<path fill="#D9BB73" d="M158.9,90.7c0,0-1.1-0.5-1.3-1.5c-0.2-1-1.7-0.4-1.7-0.4h0c0,0-1.5-0.6-1.7,0.4c-0.2,1-1.3,1.5-1.3,1.5
			c0.6,0.9,2.6,1.2,2.9,1.3v0c0,0,0,0,0,0c0,0,0,0,0,0v0C156.2,91.9,158.3,91.6,158.9,90.7z"/>
		<path fill="#CEA748" d="M158.4,90.3c0,0-0.4-0.4-0.6-0.6s-3.3,0.4-3.3,0.4s1,1.1,1.7,1C157.8,90.9,158.4,90.3,158.4,90.3z"/>
		<path fill="#AEAEB4" d="M155.9,91.7c0,0-3.3-1.7-3.5-0.8c-0.2,0.9,2.5,4.3,3.5,4.3c1.3-0.1,3.7-3.4,3.4-4.3
			C159,90,156.1,91.6,155.9,91.7z"/>
		<polygon fill="#FF8600" points="156.4,95.2 155.9,92.7 155.2,95.2 155.8,95.2 		"/>
		<polygon fill="#FF8600" points="155.9,91.7 155,92.7 155.2,93.2 155.7,93.7 156,93.6 156.6,93.1 156.7,92.6 		"/>
		<polygon fill="#BABBC1" points="159.1,90.6 158.7,90.4 155.9,91.7 156.9,93.3 		"/>
		<polygon fill="#24518B" points="155.9,95.2 156.2,112 158.8,112.9 163.1,112.8 163.2,97.9 162.1,93.6 160.7,91.2 		"/>
		<polygon fill="#1C3E6B" points="162.3,112.8 162.3,98.1 162.7,112.8 		"/>
		<polygon fill="#D2D4DA" points="152.7,90.6 153,90.4 155.9,91.7 154.8,93.3 		"/>
		<polygon fill="#295A98" points="156.1,95.3 157.3,98 157.5,111.6 153,112.4 148.5,110.7 148.5,97.9 149.6,93.6 151.1,91.2 		"/>
		<polygon fill="#24518B" points="149.4,109 149.4,98.1 149,109 		"/>
		<polygon fill="#1C3E6B" points="151.1,91.2 156.1,95.5 152.5,96.2 		"/>
		<polygon fill="#295A98" points="151.1,91.2 152.3,90.4 156.1,95.3 152.7,95.6 		"/>
		<polygon fill="#1C3E6B" points="160.7,91.2 155.7,95.5 159.2,96.2 		"/>
		<polygon fill="#295A98" points="160.7,91.2 159.4,90.4 155.7,95.3 159.1,95.6 		"/>
		<path fill="#E5D48F" d="M155.9,90.8c0,0-2.8-0.6-3.6-2.8c-0.8-2.2-0.4-4.7-0.4-4.7h4.1V90.8z"/>
		<path fill="#D9BB73" d="M155.9,90.8c0,0,2.8-0.6,3.6-2.8c0.8-2.2,0.4-4.7,0.4-4.7h-4.1V90.8z"/>
		<path fill="#EB9B4C" d="M161,82.7c-0.1-0.7-0.6-3.5-3-4.4v-0.1c-1.2-0.4-2-0.4-2-0.4c0,0-0.8,0.1-2,0.4v0.1
			c-2.4,0.9-2.9,3.6-3,4.4h-0.3v1.4h10.6v-1.4H161z"/>
		<path fill="#FF8600" d="M161,82.7c-0.1-0.7-0.6-3.5-3-4.4v-0.1c-1.2-0.4-2-0.4-2-0.4c0,0,0,0,0,0v6.3h5.3v-1.4H161z"/>
		<path fill="#EBCE7F" d="M153.9,78.4c0,0-0.5,0.7,0.6,3.9c-0.1,0.3-0.5,0.1-0.6-0.1c-0.9-1.4-1.2-3.1-1.2-3.1
			S153.1,78.6,153.9,78.4z"/>
		<path fill="#EB9B4C" d="M158,78.4c0,0,0.5,0.7-0.6,3.9c0.1,0.3,0.5,0.1,0.6-0.1c0.9-1.4,1.2-3.1,1.2-3.1S158.8,78.6,158,78.4z"/>
		<polygon opacity="0.5" fill="#FF8600" points="150.6,82.7 161.2,82.7 161.2,83.3 150.6,83.3 		"/>
		<polygon fill="#424242" points="148.8,110.8 149.8,112.1 154.1,112.1 153.2,110.8 		"/>
		<path opacity="0.3" fill="#424242" d="M148.5,109.3v0.4c0,0,1.2,0.4,1.5,0.5c0.3,0.1,0.6,0.6,1.4,0.8c0.8,0.1,1.5,0,2-0.2
			c0.4-0.2,0.8-0.9,0.2-1.2c-0.6-0.3-4.1-0.8-4.1-0.8C149.5,108.9,148.4,108.6,148.5,109.3z"/>
		<path fill="#E7D691" d="M150,109.7c0,0,2.2,1.3,2.9-0.1c0.7-1.3,1-2.1-1.7-3C148.7,105.7,150,109.7,150,109.7z"/>
		<path fill="#24518B" d="M161.6,109.9l-1.2-3.4c0,0,5.2-1.7,5.1-4.5c0-1.2-1.2-2.3-2.9-3.4c-1.4-0.9-2-7.4-2-7.4s2.6,1,3.9,2.6
			c1.4,1.6,5.3,5,5.6,8.5C170.8,107.5,161.6,109.9,161.6,109.9z"/>
		<path fill="#295A98" d="M150.1,109.9l1.2-3.4c0,0-5.2-1.1-5.2-3.9c0-1.2,1.5-2.6,2.9-4c1.2-1.2,2-7.4,2-7.4s-2.6,1-3.9,2.6
			c-1.4,1.6-5.3,5-5.6,8.5C141,107.5,150.1,109.9,150.1,109.9z"/>
		<circle fill="#E7D691" cx="155.7" cy="98.7" r="0.4"/>
	</g>
	<g id="assemblyBck">
		<g>
			<g>
				<g>
					<rect x="192.9" y="175.2" fill="#666666" width="12.9" height="8"/>
					<rect x="199.3" y="175.2" fill="#2E2E2E" width="6.4" height="8"/>
					<rect x="195.9" y="170.9" fill="#666666" width="7.4" height="5.1"/>
					<rect x="199.3" y="170.9" fill="#2E2E2E" width="4" height="5.1"/>
					<rect x="190.4" y="165.1" fill="#666666" width="20" height="6"/>
					<rect x="190.4" y="168.1" fill="#2E2E2E" width="20" height="3"/>
					<rect x="186.4" y="163.5" fill="#2E2E2E" width="4.6" height="1"/>
					<rect x="189.9" y="161.8" fill="#666666" width="1.9" height="12.8"/>
				</g>
				<rect x="136.4" y="179.4" fill="#666666" width="73.3" height="3.8"/>
				<rect x="173.1" y="179.4" fill="#2E2E2E" width="36.6" height="3.8"/>
				<polygon fill="#666666" points="166.1,147.6 155.7,147.6 139.1,158.2 139.1,165.1 150.6,165.1 150.6,162.6 160.8,153.3 
					165.1,156 161.9,158.8 161.9,162.7 163.9,165.1 164.7,163.9 163.7,162.3 164.4,159 166.2,158.3 167.8,159.2 167.8,162.4 
					165.7,163.9 166.4,165.1 169.4,163.1 170.8,159.2 				"/>
				<path fill="#2E2E2E" d="M166.4,154.8l-1.1-2.4c0,0,0.8-1.8,0.7-2.2c-0.1-0.4-0.6-1.6-2.1-1.7c-1.5-0.1-2.2,2.2-2.2,2.2H160
					c0,0,0,1.1-0.4-0.4c-0.5-1.5-2.6-1.6-4-0.9c-1.4,0.7-0.6,3.9-0.6,3.9l-10.3,9.2l6,1.3v-1.1l10.2-9.3l4.3,2.7l-3.2,2.7l0.1,4
					l2,2.4l0.4-0.6l-1.3-2.2l0.2-3.4l2.5-1.6c0,0,1.2,0.8,1.7,0.7c0.5,0,1.4-0.6,1.3-2C168.7,154.6,166.4,154.8,166.4,154.8z"/>
				<rect x="136.4" y="162.7" fill="#666666" width="16.8" height="20.5"/>
				<rect x="144.6" y="162.7" fill="#2E2E2E" width="8.6" height="20.5"/>
				<circle fill="#2E2E2E" cx="144.6" cy="169.5" r="6.4"/>
				<path fill="#FFFFFF" d="M194.1,183.2h9.4l0-0.1c0.1-0.2,0.1-0.5-0.2-0.7l-1.1-0.7c-0.2-0.1-0.5-0.1-0.7,0.2l-0.4,0.7
					c-0.4-0.1-0.8-0.3-1.2-0.3v-0.8c0-0.3-0.2-0.5-0.5-0.5h-1.3c-0.3,0-0.5,0.2-0.5,0.5v0.8c-0.4,0.1-0.8,0.2-1.2,0.3L196,182
					c-0.1-0.2-0.4-0.3-0.7-0.2l-1.1,0.7C194,182.6,193.9,182.9,194.1,183.2L194.1,183.2z"/>
				<path fill="#FFFFFF" d="M167.2,154.4c-1.1,0-1.9,0.9-1.9,1.9c0,1.1,0.9,1.9,1.9,1.9c1.1,0,1.9-0.9,1.9-1.9
					C169.1,155.3,168.3,154.4,167.2,154.4z M167.2,157.7c-0.7,0-1.4-0.6-1.4-1.4c0-0.7,0.6-1.4,1.4-1.4c0.7,0,1.4,0.6,1.4,1.4
					C168.6,157.1,168,157.7,167.2,157.7z"/>
				<path fill="#FFFFFF" d="M163.9,148.2c-1.4,0-2.5,1.1-2.5,2.5c0,1.4,1.1,2.5,2.5,2.5c1.4,0,2.5-1.1,2.5-2.5
					C166.4,149.3,165.3,148.2,163.9,148.2z M163.9,152.5c-1,0-1.8-0.8-1.8-1.8c0-1,0.8-1.8,1.8-1.8c1,0,1.8,0.8,1.8,1.8
					C165.7,151.7,164.9,152.5,163.9,152.5z"/>
				<path fill="#FFFFFF" d="M157.2,148.1c-1.7,0-3.2,1.4-3.2,3.2c0,1.7,1.4,3.2,3.2,3.2c1.7,0,3.2-1.4,3.2-3.2
					C160.3,149.5,158.9,148.1,157.2,148.1z M157.2,153.5c-1.2,0-2.2-1-2.2-2.2c0-1.2,1-2.2,2.2-2.2c1.2,0,2.2,1,2.2,2.2
					C159.4,152.5,158.4,153.5,157.2,153.5z"/>
				<g>
					<path fill="#FFFFFF" d="M144.6,162.5c-4,0-7.2,3.2-7.2,7.2c0,4,3.2,7.2,7.2,7.2c4,0,7.2-3.2,7.2-7.2
						C151.8,165.7,148.6,162.5,144.6,162.5z M144.6,174.7c-2.8,0-5.1-2.3-5.1-5.1c0-2.8,2.3-5.1,5.1-5.1c2.8,0,5.1,2.3,5.1,5.1
						C149.7,172.5,147.4,174.7,144.6,174.7z"/>
					<circle fill="#FFFFFF" cx="149.9" cy="166.3" r="2.4"/>
					<circle fill="#2E2E2E" cx="149.9" cy="166.3" r="0.8"/>
				</g>
				<rect x="159.8" y="177.6" fill="#666666" width="11.1" height="2.2"/>
				<rect x="165.5" y="177.6" fill="#2E2E2E" width="5.4" height="2.2"/>
				<rect x="160.5" y="173.9" fill="#666666" width="2" height="4"/>
				<rect x="168.3" y="173.9" fill="#2E2E2E" width="2" height="4"/>
				<rect x="163.9" y="162.6" fill="#2E2E2E" width="2.9" height="11.9"/>
				<rect x="162.4" y="172.4" fill="#2E2E2E" width="5.9" height="2.6"/>
			</g>
		</g>
		<g>
			<g>
				<g>
					<g>
						<g>
							<g>
								<path fill="#FF8600" d="M25.8,46.3v-2.8c-0.2-0.1-0.4-0.2-0.7-0.2c-2-0.2-3.7-0.3-5.2,0.1c-0.3,0.1-0.5,0.1-0.7,0.2
									l-0.5,2.4c0.3,0.2,0.7,0.5,0.3,1.1c-0.5,0.8-0.6,3.2-0.6,3.2c-0.6,0.5,0,0.8,0.6,0.8c0.5,0.1,1.7,0.1,1.1-0.5
									c0,0,1.1-1.9,1.1-2.9c0.5-0.8,2-0.2,3.2-0.5c0.6-0.2,1.1-0.3,1.4-0.5v-0.1l-3.9,0v-0.1L25.8,46.3z M20.5,44.6l-0.2,0
									l0.2-0.9l0.2,0L20.5,44.6z M20.9,44.6l-0.2,0l0.2-0.9l0.2,0L20.9,44.6z M21.4,44.6l-0.2,0l0.2-0.9l0.2,0L21.4,44.6z
									 M21.8,44.6l-0.2,0l0.2-0.9l0.2,0L21.8,44.6z"/>
							</g>
						</g>
					</g>
				</g>
			</g>
		</g>
		<g>
			<path fill="#2E2E2E" d="M44.6,51.4c0-1.5-1.2-2.7-2.7-2.7c-0.1,0-0.2,0-0.3,0H4.9v5.3H42v0C43.4,54.1,44.6,52.9,44.6,51.4z"/>
			<polygon fill="#2E2E2E" points="39.7,58.1 44,53.1 37.3,52.1 34,55.4 			"/>
			<polygon fill="#363636" points="37.1,53.7 0,53.7 4.5,48.7 41.7,48.7 			"/>
			<polygon fill="#666666" points="4.7,53.5 0.6,53.5 4.8,48.9 8.9,48.9 			"/>
			<polygon fill="#666666" points="9.3,53.5 5.2,53.5 9.4,48.9 13.6,48.9 			"/>
			<polygon fill="#666666" points="13.9,53.5 9.8,53.5 14,48.9 18.2,48.9 			"/>
			<polygon fill="#666666" points="18.5,53.5 14.4,53.5 18.7,48.9 22.8,48.9 			"/>
			<polygon fill="#666666" points="23.1,53.5 19,53.5 23.3,48.9 27.4,48.9 			"/>
			<polygon fill="#666666" points="27.7,53.5 23.6,53.5 27.9,48.9 32,48.9 			"/>
			<polygon fill="#666666" points="32.3,53.5 28.2,53.5 32.5,48.9 36.6,48.9 			"/>
			<polygon fill="#666666" points="36.9,53.5 32.8,53.5 37.1,48.9 41.2,48.9 			"/>
			<path fill="#2E2E2E" d="M40.4,56.3c0-1.5-1.2-2.7-2.7-2.7c-0.1,0-0.2,0-0.3,0H0V59h37.8v0C39.2,59,40.4,57.8,40.4,56.3z"/>
			<path fill="#666666" d="M37.7,53.5l4-4.5c0,0,1.8,0,2.5,2c-1.1,1.3-4.2,5-4.2,5S40.2,53.8,37.7,53.5z"/>
			<path fill="#666666" d="M44.3,51.3L40,56.5c0,0,0.1,0.9-0.2,1.5c1.9-2.2,4.1-4.8,4.1-4.8S44.3,52.3,44.3,51.3z"/>
		</g>
		<g>
			<g>
				<g>
					<g>
						<path fill="#FF8600" d="M62.8,46.8V44c-0.2-0.1-0.4-0.2-0.7-0.2c-2-0.2-3.7-0.3-5.2,0.1c-0.3,0.1-0.5,0.1-0.7,0.2l-0.5,2.4
							c0.3,0.2,0.7,0.5,0.3,1.1c-0.5,0.8-0.6,3.2-0.6,3.2c-0.6,0.5,0,0.8,0.6,0.8c0.5,0.1,1.7,0.1,1.1-0.5c0,0,1.1-1.9,1.1-2.9
							c0.5-0.8,2-0.2,3.2-0.5c0.6-0.2,1.1-0.3,1.4-0.5V47l-3.9,0v-0.1L62.8,46.8z M57.4,45.1l-0.2,0l0.2-0.9l0.2,0L57.4,45.1z
							 M57.8,45.1l-0.2,0l0.2-0.9l0.2,0L57.8,45.1z M58.3,45.1l-0.2,0l0.2-0.9l0.2,0L58.3,45.1z M58.7,45.1l-0.2,0l0.2-0.9l0.2,0
							L58.7,45.1z"/>
					</g>
				</g>
				<rect x="66.6" y="44.5" fill="#EB9B4C" width="0.3" height="2.2"/>
				<g>
					<g>
						<rect x="62.9" y="44" fill="#EB9B4C" width="1" height="3"/>
						<rect x="65.7" y="44" fill="#EB9B4C" width="0.9" height="3"/>
					</g>
				</g>
				<rect x="64" y="43.8" fill="#2E2E2E" width="1.5" height="3.2"/>
			</g>
		</g>
		<g>
			<path fill="#2E2E2E" d="M81.4,51.4c0-1.5-1.2-2.7-2.7-2.7c-0.1,0-0.2,0-0.3,0H41.7v5.3h37.1v0C80.3,54.1,81.4,52.9,81.4,51.4z"/>
			<polygon fill="#2E2E2E" points="76.6,58.1 80.8,53.1 74.2,52.1 70.8,55.4 			"/>
			<polygon fill="#363636" points="74,53.7 36.8,53.7 41.4,48.7 78.5,48.7 			"/>
			<polygon fill="#666666" points="41.5,53.5 37.4,53.5 41.7,48.9 45.8,48.9 			"/>
			<polygon fill="#666666" points="46.1,53.5 42,53.5 46.3,48.9 50.4,48.9 			"/>
			<polygon fill="#666666" points="50.7,53.5 46.6,53.5 50.9,48.9 55,48.9 			"/>
			<polygon fill="#666666" points="55.3,53.5 51.2,53.5 55.5,48.9 59.6,48.9 			"/>
			<polygon fill="#666666" points="59.9,53.5 55.8,53.5 60.1,48.9 64.2,48.9 			"/>
			<polygon fill="#666666" points="64.5,53.5 60.4,53.5 64.7,48.9 68.8,48.9 			"/>
			<polygon fill="#666666" points="69.1,53.5 65,53.5 69.3,48.9 73.4,48.9 			"/>
			<polygon fill="#666666" points="73.8,53.5 69.6,53.5 73.9,48.9 78,48.9 			"/>
			<path fill="#2E2E2E" d="M77.2,56.3c0-1.5-1.2-2.7-2.7-2.7c-0.1,0-0.2,0-0.3,0H36.8V59h37.8v0C76.1,59,77.2,57.8,77.2,56.3z"/>
			<path fill="#666666" d="M74.6,53.5l4-4.5c0,0,1.8,0,2.5,2c-1.1,1.3-4.2,5-4.2,5S77,53.8,74.6,53.5z"/>
			<path fill="#666666" d="M81.1,51.3l-4.2,5.2c0,0,0.1,0.9-0.2,1.5c1.9-2.2,4.1-4.8,4.1-4.8S81.1,52.3,81.1,51.3z"/>
		</g>
		<g>
			<g>
				<g>
					<path fill="#EB9B4C" d="M90.6,45.7l0.4-2.2c-0.2,0.1-0.3,0.2-0.4,0.4c-0.3,0.4-0.3,1.1-0.2,1.5C90.5,45.5,90.5,45.6,90.6,45.7z
						"/>
				</g>
				<g>
					<g>
						<path fill="#FF8600" d="M97.8,46.2v-2.8c-0.2-0.1-0.4-0.2-0.7-0.2c-2-0.2-3.7-0.3-5.2,0.1c-0.3,0.1-0.5,0.1-0.7,0.2l-0.5,2.4
							c0.3,0.2,0.7,0.5,0.3,1.1c-0.5,0.8-0.6,3.2-0.6,3.2c-0.6,0.5,0,0.8,0.6,0.8c0.5,0.1,1.7,0.1,1.1-0.5c0,0,1.1-1.9,1.1-2.9
							c0.5-0.8,2-0.2,3.2-0.5c0.6-0.2,1.1-0.3,1.4-0.5v-0.1l-3.9,0v-0.1L97.8,46.2z M92.4,44.5l-0.2,0l0.2-0.9l0.2,0L92.4,44.5z
							 M92.9,44.5l-0.2,0l0.2-0.9l0.2,0L92.9,44.5z M93.3,44.5l-0.2,0l0.2-0.9l0.2,0L93.3,44.5z M93.8,44.5l-0.2,0l0.2-0.9l0.2,0
							L93.8,44.5z"/>
					</g>
				</g>
				<g>
					<path fill="#EB9B4C" d="M93.4,48c0,0,0.5,0,0.6,0c0.2,0,0.4-0.1,0.4-0.3c0-0.2,0-0.4,0-0.4s-0.6,0-0.8,0.1
						c-0.2,0.1-0.3,0.2-0.3,0.2S93.4,47.8,93.4,48z"/>
				</g>
				<rect x="101.7" y="43.8" fill="#EB9B4C" width="0.3" height="2.2"/>
				<g>
					<rect x="98.7" y="46.6" fill="#FF8600" width="2.3" height="0.3"/>
				</g>
				<g>
					<rect x="98.7" y="50.2" fill="#FF8600" width="2.3" height="0.3"/>
				</g>
				<path fill="#2E2E2E" d="M100.4,50h-1.2c0,0-0.2-0.6-0.2-1.5c0-0.8,0.2-1.5,0.2-1.5h1.2c0,0,0.2,0.8,0.2,1.5
					C100.6,49.3,100.4,50,100.4,50z"/>
				<g>
					<g>
						<rect x="98" y="43.4" fill="#EB9B4C" width="1" height="3"/>
						<rect x="100.7" y="43.4" fill="#EB9B4C" width="0.9" height="3"/>
					</g>
				</g>
				<rect x="99.1" y="43.2" fill="#2E2E2E" width="1.5" height="3.2"/>
			</g>
		</g>
		<g>
			<path fill="#2E2E2E" d="M118.3,51.4c0-1.5-1.2-2.7-2.7-2.7c-0.1,0-0.2,0-0.3,0H78.6v5.3h37.1v0C117.1,54.1,118.3,52.9,118.3,51.4
				z"/>
			<polygon fill="#2E2E2E" points="113.4,58.1 117.7,53.1 111,52.1 107.7,55.4 			"/>
			<polygon fill="#363636" points="110.8,53.7 73.7,53.7 78.2,48.7 115.4,48.7 			"/>
			<polygon fill="#666666" points="78.4,53.5 74.2,53.5 78.5,48.9 82.6,48.9 			"/>
			<polygon fill="#666666" points="83,53.5 78.9,53.5 83.1,48.9 87.2,48.9 			"/>
			<polygon fill="#666666" points="87.6,53.5 83.5,53.5 87.7,48.9 91.8,48.9 			"/>
			<polygon fill="#666666" points="92.2,53.5 88.1,53.5 92.3,48.9 96.4,48.9 			"/>
			<polygon fill="#666666" points="96.8,53.5 92.7,53.5 96.9,48.9 101,48.9 			"/>
			<polygon fill="#666666" points="101.4,53.5 97.3,53.5 101.5,48.9 105.7,48.9 			"/>
			<polygon fill="#666666" points="106,53.5 101.9,53.5 106.1,48.9 110.3,48.9 			"/>
			<polygon fill="#666666" points="110.6,53.5 106.5,53.5 110.8,48.9 114.9,48.9 			"/>
			<path fill="#2E2E2E" d="M114.1,56.3c0-1.5-1.2-2.7-2.7-2.7c-0.1,0-0.2,0-0.3,0H73.7V59h37.8v0C112.9,59,114.1,57.8,114.1,56.3z"
				/>
			<path fill="#666666" d="M111.4,53.5l4-4.5c0,0,1.8,0,2.5,2c-1.1,1.3-4.2,5-4.2,5S113.8,53.8,111.4,53.5z"/>
			<path fill="#666666" d="M117.9,51.3l-4.2,5.2c0,0,0.1,0.9-0.2,1.5c1.9-2.2,4.1-4.8,4.1-4.8S118,52.3,117.9,51.3z"/>
		</g>
		<path fill="#666666" d="M2.2,54.7c-0.9,0-1.7,0.7-1.7,1.7c0,0.9,0.7,1.7,1.7,1.7c0.9,0,1.7-0.7,1.7-1.7
			C3.9,55.4,3.1,54.7,2.2,54.7z M2.2,57.3c-0.5,0-0.9-0.4-0.9-1c0-0.5,0.4-1,0.9-1s0.9,0.4,0.9,1C3.2,56.9,2.8,57.3,2.2,57.3z"/>
		<path fill="#666666" d="M9.4,54.7c-0.9,0-1.7,0.7-1.7,1.7c0,0.9,0.7,1.7,1.7,1.7s1.7-0.7,1.7-1.7C11,55.4,10.3,54.7,9.4,54.7z
			 M9.4,57.3c-0.5,0-0.9-0.4-0.9-1c0-0.5,0.4-1,0.9-1s0.9,0.4,0.9,1C10.3,56.9,9.9,57.3,9.4,57.3z"/>
		<path fill="#666666" d="M16.5,54.7c-0.9,0-1.7,0.7-1.7,1.7c0,0.9,0.7,1.7,1.7,1.7c0.9,0,1.7-0.7,1.7-1.7
			C18.2,55.4,17.4,54.7,16.5,54.7z M16.5,57.3c-0.5,0-0.9-0.4-0.9-1c0-0.5,0.4-1,0.9-1c0.5,0,0.9,0.4,0.9,1
			C17.4,56.9,17,57.3,16.5,57.3z"/>
		<path fill="#666666" d="M23.6,54.7c-0.9,0-1.7,0.7-1.7,1.7c0,0.9,0.7,1.7,1.7,1.7c0.9,0,1.7-0.7,1.7-1.7
			C25.3,55.4,24.5,54.7,23.6,54.7z M23.6,57.3c-0.5,0-0.9-0.4-0.9-1c0-0.5,0.4-1,0.9-1s0.9,0.4,0.9,1C24.6,56.9,24.2,57.3,23.6,57.3
			z"/>
		<path fill="#666666" d="M30.8,54.7c-0.9,0-1.7,0.7-1.7,1.7c0,0.9,0.7,1.7,1.7,1.7s1.7-0.7,1.7-1.7C32.4,55.4,31.7,54.7,30.8,54.7z
			 M30.8,57.3c-0.5,0-0.9-0.4-0.9-1c0-0.5,0.4-1,0.9-1s0.9,0.4,0.9,1C31.7,56.9,31.3,57.3,30.8,57.3z"/>
		<path fill="#666666" d="M37.9,54.7c-0.9,0-1.7,0.7-1.7,1.7c0,0.9,0.7,1.7,1.7,1.7c0.9,0,1.7-0.7,1.7-1.7
			C39.6,55.4,38.8,54.7,37.9,54.7z M37.9,57.3c-0.5,0-0.9-0.4-0.9-1c0-0.5,0.4-1,0.9-1s0.9,0.4,0.9,1C38.8,56.9,38.4,57.3,37.9,57.3
			z"/>
		<path fill="#666666" d="M45,54.7c-0.9,0-1.7,0.7-1.7,1.7c0,0.9,0.7,1.7,1.7,1.7c0.9,0,1.7-0.7,1.7-1.7
			C46.7,55.4,45.9,54.7,45,54.7z M45,57.3c-0.5,0-0.9-0.4-0.9-1c0-0.5,0.4-1,0.9-1c0.5,0,0.9,0.4,0.9,1C46,56.9,45.6,57.3,45,57.3z"
			/>
		<path fill="#666666" d="M52.2,54.7c-0.9,0-1.7,0.7-1.7,1.7c0,0.9,0.7,1.7,1.7,1.7c0.9,0,1.7-0.7,1.7-1.7
			C53.8,55.4,53.1,54.7,52.2,54.7z M52.2,57.3c-0.5,0-0.9-0.4-0.9-1c0-0.5,0.4-1,0.9-1c0.5,0,0.9,0.4,0.9,1
			C53.1,56.9,52.7,57.3,52.2,57.3z"/>
		<path fill="#666666" d="M59.3,54.7c-0.9,0-1.7,0.7-1.7,1.7c0,0.9,0.7,1.7,1.7,1.7c0.9,0,1.7-0.7,1.7-1.7
			C61,55.4,60.2,54.7,59.3,54.7z M59.3,57.3c-0.5,0-0.9-0.4-0.9-1c0-0.5,0.4-1,0.9-1c0.5,0,0.9,0.4,0.9,1
			C60.2,56.9,59.8,57.3,59.3,57.3z"/>
		<path fill="#666666" d="M66.4,54.7c-0.9,0-1.7,0.7-1.7,1.7c0,0.9,0.7,1.7,1.7,1.7c0.9,0,1.7-0.7,1.7-1.7
			C68.1,55.4,67.3,54.7,66.4,54.7z M66.4,57.3c-0.5,0-0.9-0.4-0.9-1c0-0.5,0.4-1,0.9-1c0.5,0,0.9,0.4,0.9,1
			C67.4,56.9,66.9,57.3,66.4,57.3z"/>
		<path fill="#666666" d="M73.6,54.7c-0.9,0-1.7,0.7-1.7,1.7c0,0.9,0.7,1.7,1.7,1.7c0.9,0,1.7-0.7,1.7-1.7
			C75.2,55.4,74.5,54.7,73.6,54.7z M73.6,57.3c-0.5,0-0.9-0.4-0.9-1c0-0.5,0.4-1,0.9-1c0.5,0,0.9,0.4,0.9,1
			C74.5,56.9,74.1,57.3,73.6,57.3z"/>
		<path fill="#666666" d="M80.7,54.7c-0.9,0-1.7,0.7-1.7,1.7c0,0.9,0.7,1.7,1.7,1.7c0.9,0,1.7-0.7,1.7-1.7
			C82.4,55.4,81.6,54.7,80.7,54.7z M80.7,57.3c-0.5,0-0.9-0.4-0.9-1c0-0.5,0.4-1,0.9-1c0.5,0,0.9,0.4,0.9,1
			C81.6,56.9,81.2,57.3,80.7,57.3z"/>
		<path fill="#666666" d="M87.8,54.7c-0.9,0-1.7,0.7-1.7,1.7c0,0.9,0.7,1.7,1.7,1.7s1.7-0.7,1.7-1.7C89.5,55.4,88.7,54.7,87.8,54.7z
			 M87.8,57.3c-0.5,0-0.9-0.4-0.9-1c0-0.5,0.4-1,0.9-1s0.9,0.4,0.9,1C88.8,56.9,88.3,57.3,87.8,57.3z"/>
		<path fill="#666666" d="M95,54.7c-0.9,0-1.7,0.7-1.7,1.7c0,0.9,0.7,1.7,1.7,1.7s1.7-0.7,1.7-1.7C96.6,55.4,95.9,54.7,95,54.7z
			 M95,57.3c-0.5,0-0.9-0.4-0.9-1c0-0.5,0.4-1,0.9-1s0.9,0.4,0.9,1C95.9,56.9,95.5,57.3,95,57.3z"/>
		<path fill="#666666" d="M102.1,54.7c-0.9,0-1.7,0.7-1.7,1.7c0,0.9,0.7,1.7,1.7,1.7c0.9,0,1.7-0.7,1.7-1.7
			C103.8,55.4,103,54.7,102.1,54.7z M102.1,57.3c-0.5,0-0.9-0.4-0.9-1c0-0.5,0.4-1,0.9-1c0.5,0,0.9,0.4,0.9,1
			C103,56.9,102.6,57.3,102.1,57.3z"/>
		<path fill="#666666" d="M109.2,54.7c-0.9,0-1.7,0.7-1.7,1.7c0,0.9,0.7,1.7,1.7,1.7c0.9,0,1.7-0.7,1.7-1.7
			C110.9,55.4,110.1,54.7,109.2,54.7z M109.2,57.3c-0.5,0-0.9-0.4-0.9-1c0-0.5,0.4-1,0.9-1c0.5,0,0.9,0.4,0.9,1
			C110.2,56.9,109.7,57.3,109.2,57.3z"/>
		<g>
			<path fill="#363636" d="M152.3,116c0,0-3.7-4.4-4.1-4.8c-0.4-0.4,0-0.6,0.6-0.7c0.5-0.1,5.4,0,5.4,0L152.3,116z"/>
			<polygon fill="#424242" points="150.1,112.4 152.2,114.9 155.4,113.7 154.4,112.4 			"/>
			<path fill="#666666" d="M173.8,115.2c0-2.9,0-11.8,0-11.8c0-0.7-0.5-1.2-1.2-1.2h-19.4c-0.7,0-1.2,0.6-1.2,1.2c0,0,0,8.9,0,11.9
				c0,0.6,0.4,1,1,1c5,0,14.9,0,19.8,0C173.5,116.3,173.8,115.8,173.8,115.2z"/>
			<path fill="#363636" d="M172.6,102.2h-6.4l-6.3,14.1h12.9c0.7,0,1-0.5,1-1.2c0-2.9,0-11.8,0-11.8
				C173.8,102.7,173.3,102.2,172.6,102.2z"/>
		</g>
		<g>
			<path fill="#295A98" d="M111.9,94.2c-1.7,0-2.4-1.2-1.6-2.7l9.2-16c0.9-1.5,2.3-1.5,3.1,0l9.2,16c0.9,1.5,0.2,2.7-1.6,2.7H111.9z
				"/>
			<path fill="#24518B" d="M131.8,91.5l-9.2-16c-0.4-0.7-1-1.1-1.5-1.1v19.8h9.1C132,94.2,132.7,93,131.8,91.5z"/>
			<path fill="#EB9B4C" d="M113.6,93c-1.4,0-2-1-1.3-2.2l7.5-13.1c0.7-1.2,1.8-1.2,2.5,0l7.5,13.1c0.7,1.2,0.1,2.2-1.3,2.2H113.6z"
				/>
			<path fill="#FF8600" d="M129.9,90.7l-7.5-13.1c-0.3-0.6-0.8-0.9-1.2-0.9V93h7.5C130,93,130.6,92,129.9,90.7z"/>
			<path fill="#E5D48F" d="M120.6,88.4l-0.3-2.8V80h1.6v5.6l-0.3,2.8H120.6z M121.9,89.8c-0.2-0.2-0.5-0.3-0.8-0.3
				c-0.3,0-0.6,0.1-0.8,0.3c-0.2,0.2-0.3,0.4-0.3,0.8c0,0.3,0.1,0.5,0.3,0.7c0.2,0.2,0.5,0.3,0.8,0.3c0.3,0,0.6-0.1,0.8-0.3
				c0.2-0.2,0.3-0.4,0.3-0.7C122.2,90.3,122.1,90,121.9,89.8z"/>
			<polygon fill="#D9BB73" points="121.9,85.6 121.9,80 121.1,80 121.1,88.4 121.6,88.4 			"/>
			<path fill="#D9BB73" d="M121.9,89.8c-0.2-0.2-0.5-0.3-0.8-0.3v2.1c0.3,0,0.6-0.1,0.8-0.3c0.2-0.2,0.3-0.4,0.3-0.7
				C122.2,90.3,122.1,90,121.9,89.8z"/>
		</g>
		<g>
			<g>
				<g>
					<path fill="#EB9B4C" d="M109.7,106.2l0.8-4.1c-0.3,0.2-0.6,0.4-0.8,0.8c-0.5,0.7-0.6,2-0.3,2.8
						C109.4,105.9,109.6,106,109.7,106.2z"/>
				</g>
				<g>
					<g>
						<path fill="#FF8600" d="M123.2,107.1v-5.3c-0.4-0.2-0.8-0.4-1.3-0.5c-3.8-0.5-6.9-0.6-9.8,0.1c-0.6,0.2-1,0.3-1.3,0.4
							l-0.9,4.4c0.6,0.5,1.2,0.9,0.5,2.1c-0.9,1.5-1.1,6-1.1,6c-1.2,1,0.1,1.4,1.2,1.6c0.9,0.1,3.3,0.1,2.1-1c0,0,2.1-3.6,2.1-5.5
							c0.9-1.5,3.8-0.4,5.9-0.9c1.2-0.3,2-0.6,2.6-1v-0.2l-7.3,0v-0.3L123.2,107.1z M113.1,103.9l-0.3-0.1l0.3-1.8l0.3,0.1
							L113.1,103.9z M114,103.9l-0.3-0.1l0.3-1.8l0.3,0.1L114,103.9z M114.8,103.9l-0.3-0.1l0.3-1.8l0.3,0.1L114.8,103.9z
							 M115.7,103.9l-0.3-0.1l0.3-1.8l0.3,0.1L115.7,103.9z"/>
					</g>
				</g>
				<g>
					<path fill="#EB9B4C" d="M114.9,110.5c0,0,0.9,0,1.2,0c0.4,0,0.7-0.2,0.8-0.6c0-0.4,0.1-0.8,0.1-0.8s-1,0-1.4,0.2
						c-0.4,0.2-0.5,0.4-0.5,0.4S115,110.1,114.9,110.5z"/>
				</g>
				<rect x="130.5" y="102.6" fill="#EB9B4C" width="0.6" height="4.1"/>
				<polygon fill="#2E2E2E" points="134.2,102.6 131.4,102.6 131.4,106.7 134.2,106.7 135.3,106.1 135.3,103.3 				"/>
				<g>
					<rect x="124.9" y="107.9" fill="#FF8600" width="4.3" height="0.5"/>
				</g>
				<g>
					<rect x="124.9" y="114.7" fill="#FF8600" width="4.3" height="0.5"/>
				</g>
				<path fill="#2E2E2E" d="M128.1,114.3H126c0,0-0.3-1.1-0.3-2.8c0-1.4,0.3-2.8,0.3-2.8h2.2c0,0,0.3,1.4,0.3,2.8
					C128.5,113,128.1,114.3,128.1,114.3z"/>
				<g>
					<g>
						<rect x="123.5" y="101.9" fill="#EB9B4C" width="1.9" height="5.6"/>
						<rect x="128.7" y="101.9" fill="#EB9B4C" width="1.7" height="5.6"/>
					</g>
				</g>
				<rect x="125.6" y="101.5" fill="#2E2E2E" width="2.8" height="6"/>
			</g>
		</g>
		<path fill="#EB9B4C" d="M113.6,44.6l1.6,1.7c0-0.2,0-0.4-0.1-0.6c-0.2-0.5-0.7-0.9-1.1-1C113.8,44.6,113.7,44.6,113.6,44.6z"/>
		<path fill="#FF8600" d="M108.8,50.4l2.4,1.7c0.2-0.1,0.4-0.2,0.6-0.4c1.4-1.6,2.5-2.9,3.1-4.5c0.1-0.3,0.2-0.5,0.2-0.7l-1.7-1.8
			c-0.4,0.1-0.8,0.3-1.1-0.4c-0.4-0.9-2.3-2.4-2.3-2.4c-0.1-0.9-0.7-0.4-1.1,0c-0.4,0.4-1.1,1.4-0.2,1.3c0,0,0.9,2.1,1.8,2.7
			c0.3,0.9-1.1,1.8-1.5,3c-0.3,0.6-0.4,1.1-0.4,1.5l0.1,0.1L111,47l0.1,0.1L108.8,50.4z M113.5,46.9l0.1-0.1l0.7,0.7l-0.1,0.1
			L113.5,46.9z M113.2,47.3l0.1-0.1l0.7,0.7l-0.1,0.1L113.2,47.3z M113,47.7l0.1-0.1l0.7,0.7l-0.1,0.1L113,47.7z M112.7,48l0.1-0.1
			l0.7,0.7l-0.1,0.1L112.7,48z"/>
		<path fill="#EB9B4C" d="M110,45.6c0,0-0.3,0.4-0.4,0.5c-0.1,0.2-0.1,0.4,0,0.6c0.2,0.2,0.3,0.3,0.3,0.3s0.3-0.5,0.4-0.7
			c0-0.2,0-0.4,0-0.4S110.1,45.7,110,45.6z"/>
		
			<rect x="107.2" y="53.5" transform="matrix(-0.5828 0.8126 -0.8126 -0.5828 214.4037 -0.8326)" fill="#EB9B4C" width="0.3" height="2.3"/>
		<polygon fill="#2E2E2E" points="107.3,56.8 108.2,55.5 106.3,54.2 105.4,55.5 105.3,56.2 106.6,57.1 		"/>
		
			<rect x="105.9" y="51.6" transform="matrix(-0.5828 0.8126 -0.8126 -0.5828 211.5641 -5.0773)" fill="#FF8600" width="2.4" height="0.3"/>
		
			<rect x="102.9" y="49.5" transform="matrix(-0.5828 0.8126 -0.8126 -0.5828 205.0615 -6.0902)" fill="#FF8600" width="2.4" height="0.3"/>
		<path fill="#2E2E2E" d="M104,50.3l0.7-1c0,0,0.6,0.2,1.3,0.8c0.6,0.5,1.1,1.1,1.1,1.1l-0.7,1c0,0-0.7-0.3-1.3-0.8
			C104.5,50.8,104,50.3,104,50.3z"/>
		<g>
			<g>
				<polygon fill="#EB9B4C" points="110.4,53.1 111,52.2 108.5,50.4 107.9,51.3 				"/>
				<polygon fill="#EB9B4C" points="109.4,54.6 106.9,52.7 106.3,53.5 108.8,55.3 				"/>
			</g>
		</g>
		<polygon fill="#2E2E2E" points="106.9,52.6 107.8,51.4 110.5,53.3 109.6,54.6 		"/>
		<path fill="#EB9B4C" d="M41.1,45.6l1.6,1.7c0-0.2,0-0.4-0.1-0.6c-0.2-0.5-0.7-0.9-1.1-1C41.4,45.5,41.3,45.5,41.1,45.6z"/>
		<path fill="#FF8600" d="M36.3,51.3l2.4,1.7c0.2-0.1,0.4-0.2,0.6-0.4c1.4-1.6,2.5-2.9,3.1-4.5c0.1-0.3,0.2-0.5,0.2-0.7L41,45.6
			c-0.4,0.1-0.8,0.3-1.1-0.4c-0.4-0.9-2.3-2.4-2.3-2.4c-0.1-0.9-0.7-0.4-1.1,0c-0.4,0.4-1.1,1.4-0.2,1.3c0,0,0.9,2.1,1.8,2.7
			c0.3,0.9-1.1,1.8-1.5,3c-0.3,0.6-0.4,1.1-0.4,1.5l0.1,0.1l2.4-3.3l0.1,0.1L36.3,51.3z M41.1,47.9l0.1-0.1l0.7,0.7l-0.1,0.1
			L41.1,47.9z M40.8,48.2l0.1-0.1l0.7,0.7L41.5,49L40.8,48.2z M40.5,48.6l0.1-0.1l0.7,0.7l-0.1,0.1L40.5,48.6z M40.2,49l0.1-0.1
			l0.7,0.7l-0.1,0.1L40.2,49z"/>
		<path fill="#EB9B4C" d="M37.5,46.5c0,0-0.3,0.4-0.4,0.5c-0.1,0.2-0.1,0.4,0,0.6c0.2,0.2,0.3,0.3,0.3,0.3s0.3-0.5,0.4-0.7
			c0-0.2,0-0.4,0-0.4S37.7,46.7,37.5,46.5z"/>
		
			<rect x="34.8" y="54.4" transform="matrix(-0.5828 0.8126 -0.8126 -0.5828 100.4828 59.5713)" fill="#EB9B4C" width="0.3" height="2.3"/>
		<polygon fill="#2E2E2E" points="34.8,57.7 35.7,56.5 33.8,55.2 33,56.4 32.9,57.1 34.1,58.1 		"/>
		
			<rect x="33.4" y="52.6" transform="matrix(-0.5828 0.8126 -0.8126 -0.5828 97.6433 55.3266)" fill="#FF8600" width="2.4" height="0.3"/>
		
			<rect x="30.4" y="50.4" transform="matrix(-0.5828 0.8126 -0.8126 -0.5828 91.1406 54.3137)" fill="#FF8600" width="2.4" height="0.3"/>
		<path fill="#2E2E2E" d="M31.5,51.2l0.7-1c0,0,0.6,0.2,1.3,0.8c0.6,0.5,1.1,1.1,1.1,1.1L34,53c0,0-0.7-0.3-1.3-0.8
			C32,51.8,31.5,51.2,31.5,51.2z"/>
		<g>
			<g>
				<polygon fill="#EB9B4C" points="38,54 38.6,53.2 36.1,51.4 35.5,52.2 				"/>
				<polygon fill="#EB9B4C" points="36.9,55.5 34.4,53.7 33.9,54.4 36.4,56.3 				"/>
			</g>
		</g>
		<polygon fill="#2E2E2E" points="34.5,53.6 35.4,52.3 38.1,54.3 37.1,55.5 		"/>
		<path fill="#EB9B4C" d="M80.5,43.9l1.6,1.7c0-0.2,0-0.4-0.1-0.6c-0.2-0.5-0.7-0.9-1.1-1C80.8,43.9,80.6,43.9,80.5,43.9z"/>
		<path fill="#FF8600" d="M75.7,49.7l2.4,1.7c0.2-0.1,0.4-0.2,0.6-0.4c1.4-1.6,2.5-2.9,3.1-4.5c0.1-0.3,0.2-0.5,0.2-0.7L80.4,44
			c-0.4,0.1-0.8,0.3-1.1-0.4c-0.4-0.9-2.3-2.4-2.3-2.4c-0.1-0.9-0.7-0.4-1.1,0c-0.4,0.4-1.1,1.4-0.2,1.3c0,0,0.9,2.1,1.8,2.7
			c0.3,0.9-1.1,1.8-1.5,3c-0.3,0.6-0.4,1.1-0.4,1.5l0.1,0.1l2.4-3.3l0.1,0.1L75.7,49.7z M80.4,46.2l0.1-0.1l0.7,0.7l-0.1,0.1
			L80.4,46.2z M80.2,46.6l0.1-0.1l0.7,0.7l-0.1,0.1L80.2,46.6z M79.9,47l0.1-0.1l0.7,0.7l-0.1,0.1L79.9,47z M79.6,47.4l0.1-0.1
			l0.7,0.7l-0.1,0.1L79.6,47.4z"/>
		<path fill="#EB9B4C" d="M76.9,44.9c0,0-0.3,0.4-0.4,0.5c-0.1,0.2-0.1,0.4,0,0.6c0.2,0.2,0.3,0.3,0.3,0.3s0.3-0.5,0.4-0.7
			c0-0.2,0-0.4,0-0.4S77.1,45,76.9,44.9z"/>
		
			<rect x="74.2" y="52.8" transform="matrix(-0.5828 0.8126 -0.8126 -0.5828 161.4913 24.9553)" fill="#EB9B4C" width="0.3" height="2.3"/>
		<polygon fill="#2E2E2E" points="74.2,56.1 75.1,54.9 73.2,53.5 72.3,54.8 72.3,55.5 73.5,56.4 		"/>
		
			<rect x="72.8" y="50.9" transform="matrix(-0.5828 0.8126 -0.8126 -0.5828 158.6518 20.7106)" fill="#FF8600" width="2.4" height="0.3"/>
		
			<rect x="69.8" y="48.8" transform="matrix(-0.5828 0.8126 -0.8126 -0.5828 152.1491 19.6977)" fill="#FF8600" width="2.4" height="0.3"/>
		<path fill="#2E2E2E" d="M70.9,49.6l0.7-1c0,0,0.6,0.2,1.3,0.8c0.6,0.5,1.1,1.1,1.1,1.1l-0.7,1c0,0-0.7-0.3-1.3-0.8
			C71.4,50.2,70.9,49.6,70.9,49.6z"/>
		<g>
			<g>
				<polygon fill="#EB9B4C" points="77.3,52.4 78,51.5 75.5,49.7 74.8,50.6 				"/>
				<polygon fill="#EB9B4C" points="76.3,53.9 73.8,52 73.2,52.8 75.8,54.6 				"/>
			</g>
		</g>
		<polygon fill="#2E2E2E" points="73.9,51.9 74.8,50.7 77.5,52.6 76.5,53.9 		"/>
		<text transform="matrix(1 0 0 1 168.161 88.6171)" font-family="'Stencil'" font-size="6">testing</text>
		<text transform="matrix(1 0 0 1 200.944 161.395)" font-family="'Stencil'" font-size="6">production</text>
		<text transform="matrix(1 0 0 1 34.9487 66.4059)" font-family="'Stencil'" font-size="6">manufacturing</text>
	</g>
</g>
<style>
	.hidden{
		visibility: hidden;
	}
	
</style>
</svg>
