<?xml version="1.0" encoding="utf-8"?>
<!-- Generator: Adobe Illustrator 18.0.0, SVG Export Plug-In . SVG Version: 6.00 Build 0)  -->
<!DOCTYPE svg PUBLIC "-//W3C//DTD SVG 1.1//EN" "http://www.w3.org/Graphics/SVG/1.1/DTD/svg11.dtd">
<svg version="1.1" id="Layer_1" xmlns="http://www.w3.org/2000/svg" xmlns:xlink="http://www.w3.org/1999/xlink" x="0px" y="0px"
	 viewBox="0 0 213.4 215.8" enable-background="new 0 0 213.4 215.8" xml:space="preserve">
<g id="delivery">
	<g id="deliveryman" class='hidden'>
		<polygon fill="#394A63" points="104.6,195.2 106.7,192.2 94.5,182.6 91.1,187.5 		"/>
		<polygon fill="#394A63" points="102.9,207.9 105.2,208.2 106.7,192.2 102.9,191.8 		"/>
		<polygon fill="#332F2D" points="109.1,210.4 106.9,210.1 104.4,209.5 104.4,209.8 102.4,209.6 102.7,207.5 105.1,207.8 
			109.2,209.6 		"/>
		<polygon fill="#394A63" points="88.4,198.1 91.8,199.2 96.2,183.9 90.7,182.1 		"/>
		<polygon fill="#394A63" points="76.5,200.7 77.1,203.1 91.8,199.2 90.9,195.3 		"/>
		<polygon fill="#332F2D" points="76.4,207.7 75.9,205.5 75.6,202.8 75.4,202.8 74.9,200.8 76.8,200.4 77.3,202.9 77.1,207.6 		"/>
		<polygon fill="#635D5A" points="76.8,207.6 76.4,207.7 75.9,205.5 75.6,202.8 75.4,202.8 74.9,200.8 75.3,200.7 		"/>
		<path fill="#FFDDC4" d="M109,176.4c0.1,0.5,0.5,0.8,1,0.7l2-0.4c0.4-0.1,0.7-0.6,0.6-1l0,0c-0.1-0.5-0.5-0.8-1-0.7l-2,0.4
			C109.2,175.5,108.9,175.9,109,176.4L109,176.4z"/>
		<path fill="#506A90" d="M94.8,170.1c-0.3-0.7,0-1.6,0.7-1.9c0.6-0.2,1.2-0.1,1.6,0.4c0,0,0.2,0.2,0.2,0.3c1,1.6,5.7,8.5,13.5,6.2
			c0.2,0.8,0.3,0.9,0.3,1.7C99.9,180.7,94.8,170.2,94.8,170.1L94.8,170.1C94.8,170.1,94.8,170.1,94.8,170.1z"/>
		<rect x="103.3" y="167.3" fill="#FFB669" width="15.1" height="16"/>
		<rect x="105" y="169.2" fill="#FF8712" width="11.6" height="12.2"/>
		<rect x="106.3" y="170.6" fill="#FFB669" width="9" height="9.5"/>
		<path fill="#FFDDC4" d="M108.6,178.4c0,0.5,0.4,0.8,0.8,0.8l1.9-0.2c0.4,0,0.8-0.4,0.7-0.9l0,0c0-0.5-0.4-0.8-0.8-0.8l-1.9,0.2
			C108.9,177.5,108.5,177.9,108.6,178.4L108.6,178.4z"/>
		<polygon fill="#FFDDC4" points="95.7,165.9 97.9,166.5 98.4,164.1 96.2,163.5 		"/>
		<polygon fill="#637EA7" points="90.3,183.5 96,183.9 98.9,166.5 94.6,165.4 		"/>
		<path fill="#FFDDC4" d="M95.6,158.6c-0.4,1.7-0.4,3.3,0.8,4l-0.4,2l2.2,0.5c1.6,0.4,2.2-0.7,2.6-2.4l0.8,0.1l-0.3-2.3l0.2-0.8
			c0.4-1.7-0.6-3.4-2.2-3.8l0,0c-1.6-0.4-3.2,0.6-3.6,2.3L95.6,158.6z"/>
		<path fill="#753A13" d="M95.9,161c1.1,0.3,0.9-1.8,2-1.4c1,0.3,0.1,1.2,0.6,1.4c0.8,0.3,0.2-3,1.9-2.6c1.7,0.4-0.1-0.6,0-1.7
			c-1,0.8,0.7-1.2-0.9-1.6l0,0c-1.6-0.4-3.2,0.6-3.6,2.3C95.9,157.4,94.5,160.6,95.9,161z"/>
		<path fill="#728DB6" d="M94.7,170.1c-0.2-0.8,0.2-1.6,1-1.8c0.6-0.2,1.2,0.1,1.5,0.6c0,0,0.1,0.2,0.2,0.3
			c0.8,1.7,4.6,9.3,12.5,8.1c0.1,0.8,0.1,0.9,0.1,1.8C98.4,181.4,94.7,170.2,94.7,170.1L94.7,170.1
			C94.7,170.2,94.7,170.1,94.7,170.1z"/>
		<path fill="#3F3F3F" d="M99.9,160.6c0,0.2,0,0.3,0.2,0.4c0.2,0,0.3,0,0.4-0.2c0-0.2,0-0.3-0.2-0.4
			C100.1,160.4,99.9,160.5,99.9,160.6z"/>
		<polygon fill="#3F3F3F" points="99.8,159.9 100.8,160.2 100.9,160.1 99.9,159.7 		"/>
		<polygon fill="#635D5A" points="109.1,209.9 109.1,210.4 106.9,210.1 104.4,209.5 104.4,209.8 102.4,209.6 102.5,209.1 		"/>
		<path fill="#FFEADD" d="M97.1,160.4c-0.1,0.4,0,0.8,0.3,0.9c0.3,0.1,0.6-0.1,0.8-0.5c0.1-0.4,0-0.8-0.3-0.9
			C97.5,159.8,97.2,160,97.1,160.4z"/>
		<path fill="#F1CFB7" d="M97.3,160.5c-0.1,0.2,0,0.5,0.2,0.5c0.2,0.1,0.4-0.1,0.5-0.3c0.1-0.2,0-0.5-0.2-0.5
			C97.6,160.1,97.4,160.2,97.3,160.5z"/>
		<path fill="#4A6181" d="M99.5,155.1c-1.9-0.5-3.8,0.8-4.2,2.8l6.9,1.7C102.6,157.6,101.4,155.6,99.5,155.1z"/>
		<polygon fill="#4A6181" points="104.1,160 101.7,159.5 101.8,159.1 104.2,159.7 		"/>
	</g>
	<g id="driver" class='hidden'>
		<rect x="46.4" y="73.5" fill="#F1CFB7" width="2.3" height="2.5"/>
		<polygon fill="#394A63" points="45.8,116.6 42.1,116.6 42.1,93 47.7,93 		"/>
		<polygon fill="#394A63" points="53,116.6 49.3,116.6 47.1,93 53,93 		"/>
		<path fill="#FFDDC4" d="M51.5,69.4c0,2.9-1.8,5.2-3.9,5.2c-2.2,0-3.9-2.3-3.9-5.2c0-2.9,1.8-5.2,3.9-5.2
			C49.7,64.2,51.5,66.5,51.5,69.4z"/>
		<path fill="#753A13" d="M43.6,68.8c1.9,0,2.5-2.5,1.4-3.5C43.9,65.6,43.3,66.7,43.6,68.8z"/>
		<path fill="#753A13" d="M51.5,68.7c-1.9,0-2.5-2.5-1.4-3.6C51.2,65.5,51.7,66.6,51.5,68.7z"/>
		<path fill="#3F3F3F" d="M46.1,69.2c0,0.2-0.1,0.3-0.3,0.3c-0.2,0-0.3-0.1-0.3-0.3c0-0.2,0.1-0.3,0.3-0.3
			C45.9,68.9,46.1,69,46.1,69.2z"/>
		<ellipse fill="#3F3F3F" cx="49.4" cy="69.2" rx="0.3" ry="0.3"/>
		<rect x="48.8" y="68.3" fill="#3F3F3F" width="1.1" height="0.2"/>
		<rect x="45.2" y="68.3" fill="#3F3F3F" width="1.1" height="0.2"/>
		<path fill="#FFDDC4" d="M43.9,69.3c0,0.3-0.2,0.5-0.5,0.5c-0.3,0-0.5-0.2-0.5-0.5c0-0.3,0.2-0.5,0.5-0.5
			C43.7,68.8,43.9,69,43.9,69.3z"/>
		<ellipse fill="#FFDDC4" cx="51.6" cy="69.2" rx="0.5" ry="0.5"/>
		<ellipse fill="#F1CFB7" cx="51.6" cy="69.2" rx="0.3" ry="0.3"/>
		<ellipse fill="#F1CFB7" cx="43.4" cy="69.3" rx="0.3" ry="0.3"/>
		<polygon fill="#423D39" points="47.6,71.4 46.8,71.4 47.5,69.1 47.6,69.1 47,71.3 47.6,71.3 		"/>
		<rect x="41.5" y="75.8" fill="#637EA7" width="11.5" height="18.8"/>
		<polygon fill="#332F2D" points="37.4,119.1 40.1,119.1 43.2,118.8 43.2,119.1 45.5,119.1 45.5,116.6 42.5,116.6 37.4,118.2 		"/>
		<polygon fill="#635D5A" points="37.4,118.6 37.4,119.1 40.1,119.1 43.2,118.8 43.2,119.1 45.5,119.1 45.5,118.6 		"/>
		<polygon fill="#332F2D" points="57.7,119.1 55,119.1 51.9,118.8 51.9,119.1 49.6,119.1 49.6,116.6 52.5,116.6 57.7,118.2 		"/>
		<polygon fill="#635D5A" points="57.7,118.6 57.7,119.1 55,119.1 51.9,118.8 51.9,119.1 49.6,119.1 49.6,118.6 		"/>
		<path fill="#423D39" d="M47.4,73c-0.8,0-1.3-0.2-1.3-0.3l0.1-0.1c0,0,1.1,0.5,2.6,0l0,0.1C48.3,73,47.8,73,47.4,73z"/>
		<rect x="41.9" y="82.8" fill="#FFB669" width="10.6" height="11.2"/>
		<rect x="43.1" y="84" fill="#FF8712" width="8.1" height="8.6"/>
		<rect x="44" y="85" fill="#FFB669" width="6.3" height="6.7"/>
		<path fill="#FFDDC4" d="M53,95.6l0.8-1.3l-1.3-0.9l-0.8,1.3c-0.2,0.4-0.1,0.9,0.2,1.1C52.3,96.1,52.8,96,53,95.6z"/>
		<path fill="#637EA7" d="M54.3,76.3c-0.5-0.6-1.4-0.6-1.9-0.1c-0.4,0.4-0.5,1.1-0.3,1.6c0,0,0.1,0.2,0.2,0.3c1,1.6,5.1,9,0,15.6
			c0.6,0.6,0.7,0.6,1.4,1C61.4,85.5,54.3,76.4,54.3,76.3L54.3,76.3C54.3,76.3,54.3,76.3,54.3,76.3z"/>
		<path fill="#FFDDC4" d="M43,94.8l-0.9-1.3l-1.3,1l0.9,1.3c0.3,0.4,0.7,0.5,1.1,0.2C43.2,95.7,43.2,95.1,43,94.8z"/>
		<path fill="#637EA7" d="M40.4,76.3c0.5-0.6,1.4-0.6,1.9-0.1c0.4,0.4,0.5,1.1,0.3,1.6c0,0-0.1,0.2-0.2,0.3c-1,1.6-5.1,9,0,15.6
			c-0.6,0.6-0.7,0.6-1.4,1C33.2,85.5,40.3,76.4,40.4,76.3L40.4,76.3C40.4,76.3,40.4,76.3,40.4,76.3z"/>
		<path fill="#637EA7" d="M47.5,62.9c-2.3,0-4.3,2-4.3,4.5h8.5C51.8,64.9,49.9,62.9,47.5,62.9z"/>
		<path fill="#4A6181" d="M47.5,68.8c-2.3,0-4.3-0.6-4.3-1.4h8.5C51.8,68.2,49.9,68.8,47.5,68.8z"/>
	</g>
	<g id="deliveryBck" class='hidden'>
		<g>
			<path fill="#FFFF00" d="M78.3,1C60.5,1,46,15.5,46,33.4c0,17.9,14.5,32.4,32.4,32.4c17.9,0,32.4-14.5,32.4-32.4
				C110.7,15.5,96.2,1,78.3,1z M78.3,61.9c-15.8,0-28.5-12.8-28.5-28.5c0-15.8,12.8-28.5,28.5-28.5c15.8,0,28.5,12.8,28.5,28.5
				C106.9,49.1,94.1,61.9,78.3,61.9z"/>
			<path d="M69.6,6.2l-1.2-3.7c-0.8,0.3-1.6,0.6-2.4,0.9L67.5,7C68.2,6.7,68.9,6.4,69.6,6.2z M74.5,5.1L74,1.3
				c-0.8,0.1-1.7,0.3-2.5,0.4l0.8,3.8C73,5.3,73.7,5.2,74.5,5.1z M82.2,5.1c0.7,0.1,1.5,0.2,2.2,0.4l0.8-3.8
				c-0.8-0.2-1.7-0.3-2.5-0.4L82.2,5.1z M54.2,18.1l-3.2-2c-0.5,0.7-0.9,1.5-1.3,2.2l3.4,1.8C53.4,19.4,53.8,18.8,54.2,18.1z
				 M87,6.2c0.7,0.2,1.4,0.5,2.1,0.8l1.5-3.6c-0.8-0.3-1.6-0.6-2.4-0.9L87,6.2z M65.1,8.1l-1.8-3.4c-0.8,0.4-1.5,0.8-2.2,1.3l2,3.2
				C63.7,8.8,64.4,8.5,65.1,8.1z M57.2,14.2l-2.8-2.6c-0.6,0.6-1.1,1.3-1.6,2l3,2.3C56.2,15.3,56.7,14.7,57.2,14.2z M60.9,10.8
				l-2.3-3c-0.7,0.5-1.3,1.1-2,1.6l2.6,2.8C59.7,11.7,60.3,11.3,60.9,10.8z M103.6,20.1l3.4-1.8c-0.4-0.8-0.8-1.5-1.3-2.2l-3.2,2
				C102.9,18.8,103.2,19.4,103.6,20.1z M49.8,33.4c0-0.4,0-0.8,0-1.1L46,32.1c0,0.4,0,0.8,0,1.3c0,0.4,0,0.9,0,1.3l3.8-0.2
				C49.8,34.1,49.8,33.7,49.8,33.4z M105.5,24.7l3.7-1.2c-0.3-0.8-0.6-1.6-0.9-2.4l-3.6,1.5C105,23.2,105.3,24,105.5,24.7z
				 M106.6,29.5l3.8-0.5c-0.1-0.8-0.3-1.7-0.4-2.5l-3.8,0.8C106.4,28,106.5,28.8,106.6,29.5z M110.7,32.1l-3.8,0.2
				c0,0.4,0,0.7,0,1.1c0,0.4,0,0.8,0,1.1l3.8,0.2c0-0.4,0-0.8,0-1.3C110.7,32.9,110.7,32.5,110.7,32.1z M91.6,8.1
				c0.7,0.4,1.3,0.7,1.9,1.1l2-3.2c-0.7-0.5-1.5-0.9-2.2-1.3L91.6,8.1z M100.1,9.4c-0.6-0.6-1.3-1.1-2-1.6l-2.4,3
				c0.6,0.5,1.2,0.9,1.7,1.4L100.1,9.4z M100.9,15.9l3-2.3c-0.5-0.7-1.1-1.3-1.6-2l-2.8,2.6C100,14.7,100.4,15.3,100.9,15.9z
				 M51.9,22.6l-3.6-1.5c-0.3,0.8-0.6,1.6-0.9,2.4l3.7,1.2C51.4,24,51.7,23.2,51.9,22.6z M77.1,1l0.2,3.8c0.4,0,0.7,0,1.1,0
				c0.4,0,0.8,0,1.1,0L79.6,1c-0.4,0-0.8,0-1.3,0C77.9,1,77.5,1,77.1,1z M91.6,58.6l1.8,3.4c0.8-0.4,1.5-0.8,2.2-1.3l-2.1-3.2
				C92.9,57.9,92.3,58.3,91.6,58.6z M95.8,55.9l2.4,3c0.7-0.5,1.3-1.1,2-1.6l-2.6-2.8C97,55,96.4,55.5,95.8,55.9z M87,60.5l1.2,3.7
				c0.8-0.3,1.6-0.6,2.4-0.9l-1.5-3.6C88.5,60,87.7,60.3,87,60.5z M82.2,61.6l0.5,3.8c0.8-0.1,1.7-0.3,2.5-0.4l-0.8-3.8
				C83.7,61.4,82.9,61.5,82.2,61.6z M106.2,39.4l3.8,0.8c0.2-0.8,0.3-1.7,0.4-2.5l-3.8-0.5C106.5,38,106.4,38.7,106.2,39.4z
				 M78.3,61.9c-0.4,0-0.8,0-1.1,0l-0.2,3.8c0.4,0,0.8,0,1.3,0c0.4,0,0.9,0,1.3,0l-0.2-3.8C79.1,61.9,78.7,61.9,78.3,61.9z
				 M99.4,52.5l2.8,2.6c0.6-0.6,1.1-1.3,1.6-2l-3-2.3C100.4,51.4,100,52,99.4,52.5z M104.7,44.2l3.6,1.5c0.3-0.8,0.6-1.6,0.9-2.4
				l-3.7-1.2C105.3,42.8,105,43.5,104.7,44.2z M102.5,48.6l3.2,2c0.5-0.7,0.9-1.5,1.3-2.2l-3.4-1.8C103.2,47.3,102.9,48,102.5,48.6z
				 M56.6,57.3c0.6,0.6,1.3,1.1,2,1.6l2.3-3c-0.6-0.5-1.2-0.9-1.7-1.4L56.6,57.3z M71.5,65c0.8,0.2,1.7,0.3,2.5,0.4l0.5-3.8
				c-0.7-0.1-1.5-0.2-2.2-0.4L71.5,65z M51.2,42.1l-3.7,1.2c0.3,0.8,0.6,1.6,0.9,2.4l3.6-1.5C51.7,43.5,51.4,42.8,51.2,42.1z
				 M53.1,46.6l-3.4,1.8c0.4,0.8,0.8,1.5,1.3,2.2l3.2-2.1C53.8,48,53.4,47.3,53.1,46.6z M50.1,37.2l-3.8,0.5
				c0.1,0.8,0.3,1.7,0.4,2.5l3.8-0.8C50.3,38.7,50.2,38,50.1,37.2z M55.8,50.8l-3,2.3c0.5,0.7,1.1,1.3,1.6,2l2.8-2.6
				C56.7,52,56.2,51.4,55.8,50.8z M50.5,27.3l-3.8-0.8c-0.2,0.8-0.3,1.7-0.4,2.5l3.8,0.5C50.2,28.8,50.3,28,50.5,27.3z M66.1,63.3
				c0.8,0.3,1.6,0.6,2.4,0.9l1.2-3.7c-0.7-0.2-1.4-0.5-2.1-0.8L66.1,63.3z M61.1,60.7c0.7,0.5,1.5,0.9,2.2,1.3l1.8-3.4
				c-0.7-0.4-1.3-0.7-1.9-1.1L61.1,60.7z"/>
		</g>
		<g>
			<g>
				<rect x="94.1" y="33.9" fill="#FFFEFD" width="78.4" height="82.1"/>
				<g>
					<polygon fill="#AFD475" points="143.9,115 140.4,109.8 136.7,115 					"/>
					<path fill="#AFD475" d="M116.7,65.4l4.2-1.8l-5.5-7.3l-3.4,1.9l0.3,3.6C114.5,61.9,116.2,63.4,116.7,65.4z"/>
					<ellipse fill="#AFD475" cx="112.3" cy="66.7" rx="3.3" ry="3.5"/>
					<path fill="#AFD475" d="M147.1,99.9c1.6,0,3,0.7,4,1.9l3.6-3.5l-0.7-11.9l-9.9-11.2L133,84.4l5.5,12.7l4.9,4.3
						C144.5,100.5,145.7,99.9,147.1,99.9z"/>
					<path fill="#AFD475" d="M147.1,111.3c-1.9,0-3.6-1.1-4.6-2.7l-1,0.4l3.5,5.9h6.6L149,111C148.4,111.2,147.8,111.3,147.1,111.3z
						"/>
					<ellipse fill="#AFD475" cx="147.1" cy="105.6" rx="4.1" ry="4.3"/>
					<path fill="#AFD475" d="M158.2,70.9l4.3-7.7l-1.6-5.8l-3.7,4.1l-0.3,9C157.3,70.5,157.8,70.7,158.2,70.9z"/>
					<path fill="#AFD475" d="M155.3,70.5l0.3-7.4l-5.5,6l2.6,3C153.3,71.3,154.3,70.7,155.3,70.5z"/>
					<ellipse fill="#AFD475" cx="156.2" cy="75.5" rx="3.6" ry="3.8"/>
					<path fill="#AFD475" d="M147.6,33.3l-2.6,4.4c0.4,0.5,0.7,1.1,0.8,1.7l4.9,0l2.3-6.1H147.6z"/>
					<path fill="#AFD475" d="M142.6,36.5c0.5,0,0.9,0.1,1.3,0.3l2.1-3.5h-4l-5.1,5.1l0.7,1.1l1.7,0
						C139.6,37.8,140.9,36.5,142.6,36.5z"/>
					<ellipse fill="#AFD475" cx="142.6" cy="39.9" rx="2.3" ry="2.4"/>
				</g>
				<g>
					<polygon fill="#E0D9CF" points="138.8,67.2 142.9,63.8 147.5,69.7 143.9,73.6 					"/>
					<polygon fill="#E0D9CF" points="129.4,56 134,53.6 127.1,46 122.6,49 					"/>
					<polygon fill="#E0D9CF" points="121.4,49.7 117.3,54.8 122.9,62.4 128,57 					"/>
					<polygon fill="#E0D9CF" points="95.1,115 127.2,115 103.6,99.5 95.1,104.1 					"/>
					<polygon fill="#E0D9CF" points="95.1,101.9 102.7,96.9 97.9,91.2 95.1,79.8 					"/>
					<polygon fill="#E0D9CF" points="95.1,33.3 95.1,57.8 110.5,56.9 106,33.3 					"/>
					<polygon fill="#E0D9CF" points="107.4,33.3 111.9,56.5 115.1,55 111.3,33.3 					"/>
					<polygon fill="#E0D9CF" points="113.6,33.3 116.6,51.7 120.7,46.5 126,43.8 123.4,33.3 					"/>
					<polygon fill="#E0D9CF" points="126.5,33.3 128.9,42.7 137.7,33.3 					"/>
					<polygon fill="#E0D9CF" points="154.6,33.3 152.3,39.4 156.5,39.4 156.7,33.3 					"/>
					<path fill="#E0D9CF" d="M121.7,65l-4.8,2c-0.1,2.1-1.5,3.8-3.3,4.4L114,75l11.2-2.6L121.7,65z"/>
					<path fill="#E0D9CF" d="M172.2,101.3l-16.4-13.1l0.5,11.3l-4.3,3.6c0.3,0.7,0.5,1.6,0.5,2.5c0,1.5-0.6,2.9-1.5,4l3.7,5.5h17.5
						V101.3z"/>
					<path fill="#E0D9CF" d="M172.2,86.7v-32l-8.6,2l1.4,6.5l-5.1,9c0.7,0.9,1.2,2.1,1.2,3.3c0,1.2-0.4,2.2-1,3.1L172.2,86.7z"/>
					<path fill="#E0D9CF" d="M151.4,75.5c0-0.4,0-0.7,0.1-1.1l-3.1-3.7l-3.4,3.6l9.9,11.2l-0.1-5.1
						C152.9,79.8,151.4,77.8,151.4,75.5z"/>
					<path fill="#E0D9CF" d="M172.2,89.6l-14.3-9.3c-0.5,0.2-0.9,0.3-1.5,0.3v5.7l15.8,12.2V89.6z"/>
					<path fill="#E0D9CF" d="M139.4,41l-2.6,0l-1-1.6l-6,6l5.3,6.2l5.4-9C140,42.1,139.6,41.6,139.4,41z"/>
					<g>
						<path fill="#E0D9CF" d="M101.5,80.9c-1.6-3.4-3.9-5.6-6.1-7.1l4.6,16.3l5.2,6.5l6.7-3.8C107.5,90.1,103.7,85.4,101.5,80.9z"/>
						<path fill="#E0D9CF" d="M106.3,78.4c2.4,5.1,7.5,10.4,11.9,10.8l0.6-0.3l-4.7-4.5l-1.1-8.2l-9.5-2.3
							C104.5,75.1,105.4,76.6,106.3,78.4z"/>
					</g>
					<path fill="#E0D9CF" d="M123,93.8c-1.6,0.8-3.1,1-4.3,1c-0.2,0-0.3,0-0.5,0c-1.5-0.1-3-0.5-4.4-1.1l-7.1,4.2l27,17.2h0.6
						l5.3-6.1L125.5,96L123,93.8z"/>
					<path fill="#E0D9CF" d="M120,88.3l2.9-1.2c0.4-0.4,0.7-0.9,1-1.5c1.3-2.2,2.5-4.8,3.7-7.7l-1.9-4.2l-11.4,2.6l1,7.2L120,88.3z"
						/>
					<path fill="#E0D9CF" d="M102,72.1l10.8,2.5l-0.4-3.2c0,0,0,0,0,0c-2.5,0-4.5-2.2-4.5-4.8c0-2.2,1.4-4.1,3.3-4.6l-0.4-3.4
						l-15.6,1v7.5C97.1,68.2,99.6,69.7,102,72.1z"/>
					<g>
						<path fill="#E0D9CF" d="M128.9,74.8c0.4-1,0.8-1.9,1.2-2.9l-2.1,1L128.9,74.8C128.9,74.8,128.9,74.8,128.9,74.8z"/>
						<path fill="#E0D9CF" d="M137.6,68.1c-1.4,2.8-2.6,5.9-3.9,8.9c-0.6,1.6-1.3,3.1-1.9,4.6l0.6,1.3l10.9-8.6l-5.6-6.2L137.6,68.1
							z"/>
					</g>
					<g>
						<path fill="#E0D9CF" d="M137.6,57.6l-2.7-3.1l-4.9,2.7l4.6,5.1C135.5,60.7,136.5,59.1,137.6,57.6z"/>
						<path fill="#E0D9CF" d="M139.1,65.2l3-2.5l-0.8-1C140.5,62.8,139.8,64,139.1,65.2z"/>
					</g>
					<g>
						<path fill="#E0D9CF" d="M148.4,49.8c2.7-0.7,5.3-1.6,7.8-2.7l0.2-6.1l-4.7,0L148.4,49.8C148.3,49.8,148.4,49.8,148.4,49.8z"/>
						<path fill="#E0D9CF" d="M149.6,55.2c-1.5,0.4-2.9,1.1-4.2,2l-1.7,4.5l5.3,6.3l6.6-7.2l0.3-7.6C153.9,54,151.8,54.7,149.6,55.2
							z"/>
					</g>
					<g>
						<path fill="#E0D9CF" d="M146.5,50.4l3.6-9.5l-4.4,0c-0.4,1.4-1.7,2.5-3.1,2.5c-0.3,0-0.6,0-0.9-0.1l-5.6,9.5l2.8,3.3
							C141,53.5,143.5,51.6,146.5,50.4z"/>
						<path fill="#E0D9CF" d="M142.4,60.2l0.2,0.3l0.4-1C142.8,59.7,142.6,60,142.4,60.2z"/>
					</g>
					<g>
						<path fill="#E0D9CF" d="M165.5,41.5c0.3-0.2,0.5-0.4,0.8-0.6l-8.4,0l-0.2,5.5C160.5,45,163.2,43.4,165.5,41.5z"/>
						<path fill="#E0D9CF" d="M157.5,52.5l-0.2,6.6l3.2-3.5l-1.1-3.9C158.7,52,158.1,52.3,157.5,52.5z"/>
						<path fill="#E0D9CF" d="M172.2,42.9c-1,1-2.1,2-3.3,3l3.3-0.6V42.9z"/>
					</g>
					<path fill="#E0D9CF" d="M172.2,33.3h-14l-0.2,6.1l10,0c1.7-1.7,3.2-3.4,4.2-5.2V33.3z"/>
					<path fill="#E0D9CF" d="M172.2,46.7l-6.6,1.5c-1.3,0.9-2.8,1.7-4.2,2.5l0.8,3.9l10.1-2.5V46.7z"/>
					<path fill="#E0D9CF" d="M130.9,69.9c0.9-2.1,1.9-4.2,2.9-6.2l-5-5.6l-5.2,5.5l3.7,8L130.9,69.9z"/>
					<path fill="#E0D9CF" d="M136.7,98.7l-5.8-13.3l-1,0.4c-0.5,1-1,2-1.5,2.9c-1.2,2.1-2.6,3.5-4,4.5l16.2,14.8l1.4-0.5
						c-0.2-0.5-0.2-1.1-0.2-1.7c0-0.8,0.2-1.6,0.4-2.3L136.7,98.7z"/>
				</g>
				<g>
					<path fill="#39C5F3" d="M136.3,66.7c-0.4-0.6-0.9-1.7-1.5-2.2c-1.8,3.5-3.3,7.2-4.8,10.8c-0.2,0.4-0.3,0.8-0.5,1.2
						c0.7,1.1,1.2,2.2,1.6,3.4c0.5-1.1,0.9-2.2,1.4-3.4c1.3-3.2,2.6-6.4,4.1-9.3C136.5,67,136.4,66.8,136.3,66.7z"/>
					<path fill="#39C5F3" d="M138.6,58.5c-1,1.3-1.9,2.8-2.8,4.4c0.8,0.6,1.3,1.6,1.8,2.4c0.9-1.7,1.9-3.3,2.9-4.7
						C139.9,59.8,139.2,59.2,138.6,58.5z"/>
					<path fill="#39C5F3" d="M158.3,47.6c-3,1.5-6.2,2.7-9.6,3.5c-3.6,0.9-6.5,3.1-8.9,5.9c0.6,0.7,1.3,1.3,1.9,2
						c2.1-2.5,4.6-4.3,7.6-5.1c3.3-0.8,6.6-2,9.6-3.5C158.8,49.5,158.6,48.5,158.3,47.6z"/>
					<path fill="#39C5F3" d="M172.2,36.5c-2.6,3.7-6.6,7.1-11.4,9.8c0,0,0,0.1,0.1,0.1c0.3,0.9,0.5,1.8,0.7,2.7
						c2.1-1.2,4.1-2.4,6-3.8c1.8-1.4,3.4-2.8,4.8-4.3V36.5z"/>
					<path fill="#39C5F3" d="M97.4,73.3c0.9-0.4,1.9-0.8,2.8-1.1c-1.8-1.6-3.6-2.8-5.1-3.6v3.3c0.7,0.4,1.4,0.9,2.1,1.4
						C97.2,73.3,97.3,73.3,97.4,73.3z"/>
					<path fill="#39C5F3" d="M128.2,79.8c-1,2.4-2.1,4.7-3.2,6.6c-0.7,1.2-1.4,2.1-2.3,2.8c0.7,0.6,1.2,1.4,1.7,2.3
						c1-0.8,2-2,2.9-3.5c0.8-1.3,1.5-2.8,2.2-4.3C129.1,82.3,128.7,81,128.2,79.8z"/>
					<path fill="#39C5F3" d="M120.9,90.2c0,0-0.1,0-0.1,0c-0.7,0.3-1.5,0.4-2.4,0.3c-5.2-0.3-10.7-6.2-13.3-11.6
						c-0.9-2-2.1-3.7-3.3-5.1c-0.3,0-0.7,0-1,0.1c-0.7,0.2-1.4,0.5-2.1,0.7c1.5,1.4,2.8,3.2,3.9,5.5c3,6.3,9.3,12.9,15.6,13.2
						c0.1,0,0.3,0,0.5,0c1.2,0,2.7-0.3,4.2-1.1C122.4,91.5,121.8,90.6,120.9,90.2z"/>
				</g>
			</g>
		</g>
		<g>
			<path fill="#50D9FF" d="M159.1,91.7c0,1-0.2,1.9-0.4,1.9c-0.2,0-0.4-0.8-0.4-1.9c0-1,0.2-1.9,0.4-1.9
				C158.9,89.8,159.1,90.6,159.1,91.7z"/>
			<rect x="66.7" y="96.2" fill="#2B2B2B" width="91.2" height="3.9"/>
			<polygon fill="#FFBF43" points="157.9,98.1 113.9,98.1 113.9,61.2 130,61.2 138.3,81.1 157.9,83.9 			"/>
			<polygon fill="#FFB500" points="135.8,96.5 115.4,96.5 115.4,62.7 128.9,62.7 135.8,80.9 			"/>
			<path fill="#333333" d="M135.9,96.7h-20.6V62.6H129l0,0.1l6.9,18.2V96.7z M115.6,96.3h20V80.9l-6.9-18h-13.2V96.3z"/>
			<polygon fill="#444444" points="116.1,80.2 116,63.3 128.4,63.3 134.7,80.1 			"/>
			<path fill="#565656" d="M158.7,93.5c0,0.4-0.3,0.7-0.7,0.7l0,0c-0.4,0-0.7-0.3-0.7-0.7v-3.7c0-0.4,0.3-0.7,0.7-0.7l0,0
				c0.4,0,0.7,0.3,0.7,0.7V93.5z"/>
			<path fill="#2B2B2B" d="M119.2,83v-0.4c0-0.4-0.3-0.8-0.8-0.8h-1.7c-0.4,0-0.8,0.4-0.8,0.8V83H119.2z"/>
			<path fill="#FFFFFF" d="M119.2,83v0.4c0,0.4-0.3,0.8-0.8,0.8h-1.7c-0.4,0-0.8-0.4-0.8-0.8V83H119.2z"/>
			<polygon fill="#FFBF43" points="114.5,98.1 66.7,98.1 66.7,51.1 110.1,51.1 114.5,61.2 			"/>
			<path fill="#FFFFFF" d="M106.8,77.4c0,0.4-0.3,0.8-0.8,0.8H72.5c-0.4,0-0.8-0.4-0.8-0.8V64.2c0-0.4,0.3-0.8,0.8-0.8h33.6
				c0.4,0,0.8,0.4,0.8,0.8V77.4z"/>
			<rect x="66.7" y="86.3" fill="#953D00" width="91.2" height="2.2"/>
			<g>
				<path fill="#2B2B2B" d="M154.8,99.8c-0.3-4.4-3.7-7.8-7.9-7.8c-4.2,0-7.6,3.4-7.9,7.8H154.8z"/>
				<g>
					<g>
						<path fill="#565656" d="M153.4,100.3c0,3.9-3,7-6.6,7c-3.7,0-6.6-3.1-6.6-7c0-3.9,3-7,6.6-7
							C150.5,93.2,153.4,96.4,153.4,100.3z"/>
						<path fill="#9A9A9A" d="M146.8,107.6c-3.8,0-7-3.3-7-7.4c0-4.1,3.1-7.4,7-7.4c3.8,0,7,3.3,7,7.4
							C153.8,104.3,150.7,107.6,146.8,107.6z M146.8,93.6c-3.5,0-6.3,3-6.3,6.7c0,3.7,2.8,6.7,6.3,6.7c3.5,0,6.3-3,6.3-6.7
							C153.1,96.6,150.3,93.6,146.8,93.6z"/>
					</g>
					<path fill="#303030" d="M150.9,100.5c0,2.4-1.8,4.3-4.1,4.3c-2.3,0-4.1-1.9-4.1-4.3c0-2.4,1.8-4.3,4.1-4.3
						C149.1,96.2,150.9,98.1,150.9,100.5z"/>
					<ellipse fill="#CDCDCD" cx="146.8" cy="100.5" rx="3.2" ry="3.4"/>
					<g>
						<polygon fill="#303030" points="146.7,98.5 146.5,98.2 146.7,97.8 147,97.8 147.2,98.2 147,98.5 						"/>
						<ellipse fill="#CDCDCD" cx="146.8" cy="98.2" rx="0.1" ry="0.1"/>
					</g>
					<g>
						<polygon fill="#303030" points="145.3,99.2 145,99.1 144.9,98.8 145.1,98.5 145.5,98.6 145.6,98.9 						"/>
						<path fill="#CDCDCD" d="M145.3,98.8c0,0,0,0.1,0,0.2c0,0-0.1,0-0.2,0c0,0,0-0.1,0-0.2C145.2,98.7,145.3,98.7,145.3,98.8z"/>
					</g>
					<g>
						<polygon fill="#303030" points="144.9,100.7 144.6,100.9 144.3,100.7 144.3,100.4 144.6,100.2 144.9,100.4 						"/>
						<ellipse fill="#CDCDCD" cx="144.6" cy="100.5" rx="0.1" ry="0.1"/>
					</g>
					<g>
						<polygon fill="#303030" points="145.6,102.1 145.5,102.5 145.1,102.6 144.9,102.3 145,102 145.3,101.9 						"/>
						<path fill="#CDCDCD" d="M145.2,102.1c0,0,0.1,0,0.2,0c0,0,0,0.1,0,0.2c0,0-0.1,0-0.2,0C145.1,102.2,145.1,102.2,145.2,102.1z"
							/>
					</g>
					<g>
						<polygon fill="#303030" points="147,102.6 147.2,102.9 147,103.2 146.6,103.2 146.5,102.9 146.6,102.6 						"/>
						<path fill="#CDCDCD" d="M146.7,102.9c0-0.1,0.1-0.1,0.1-0.1c0.1,0,0.1,0,0.1,0.1c0,0.1-0.1,0.1-0.1,0.1
							C146.8,103,146.7,103,146.7,102.9z"/>
					</g>
					<g>
						<polygon fill="#303030" points="148.3,101.9 148.6,102 148.7,102.3 148.5,102.6 148.2,102.5 148.1,102.1 						"/>
						<path fill="#CDCDCD" d="M148.3,102.3c0,0,0-0.1,0-0.2c0,0,0.1,0,0.2,0c0,0,0,0.1,0,0.2C148.4,102.3,148.4,102.3,148.3,102.3z"
							/>
					</g>
					<g>
						<polygon fill="#303030" points="148.8,100.4 149.1,100.2 149.4,100.4 149.4,100.7 149.1,100.9 148.8,100.7 						"/>
						<path fill="#CDCDCD" d="M149.1,100.6c-0.1,0-0.1-0.1-0.1-0.1c0-0.1,0.1-0.1,0.1-0.1c0.1,0,0.1,0.1,0.1,0.1
							C149.2,100.6,149.1,100.6,149.1,100.6z"/>
					</g>
					<g>
						<polygon fill="#303030" points="148.1,98.9 148.2,98.6 148.5,98.5 148.7,98.8 148.7,99.1 148.3,99.2 						"/>
						<path fill="#CDCDCD" d="M148.5,98.9c0,0-0.1,0-0.2,0c0,0,0-0.1,0-0.2c0,0,0.1,0,0.2,0C148.5,98.8,148.5,98.9,148.5,98.9z"/>
					</g>
				</g>
			</g>
			<g>
				<path fill="#2B2B2B" d="M93.5,99.8c-0.3-4.4-3.7-7.8-7.9-7.8c-4.2,0-7.6,3.4-7.9,7.8H93.5z"/>
				<g>
					<g>
						<path fill="#565656" d="M92.2,100.3c0,3.9-3,7-6.6,7c-3.7,0-6.6-3.1-6.6-7c0-3.9,3-7,6.6-7C89.3,93.2,92.2,96.4,92.2,100.3z"
							/>
						<path fill="#9A9A9A" d="M85.6,107.6c-3.8,0-7-3.3-7-7.4c0-4.1,3.1-7.4,7-7.4c3.8,0,7,3.3,7,7.4
							C92.6,104.3,89.4,107.6,85.6,107.6z M85.6,93.6c-3.5,0-6.3,3-6.3,6.7c0,3.7,2.8,6.7,6.3,6.7c3.5,0,6.3-3,6.3-6.7
							C91.9,96.6,89.1,93.6,85.6,93.6z"/>
					</g>
					<ellipse fill="#303030" cx="85.6" cy="100.5" rx="4.1" ry="4.3"/>
					<ellipse fill="#CDCDCD" cx="85.6" cy="100.5" rx="3.2" ry="3.4"/>
					<g>
						<polygon fill="#303030" points="85.4,98.5 85.3,98.2 85.4,97.8 85.8,97.8 85.9,98.2 85.8,98.5 						"/>
						<path fill="#CDCDCD" d="M85.7,98.2c0,0.1-0.1,0.1-0.1,0.1c-0.1,0-0.1-0.1-0.1-0.1c0-0.1,0.1-0.1,0.1-0.1
							C85.7,98,85.7,98.1,85.7,98.2z"/>
					</g>
					<g>
						<polygon fill="#303030" points="84.1,99.2 83.8,99.1 83.7,98.8 83.9,98.5 84.3,98.6 84.3,98.9 						"/>
						<path fill="#CDCDCD" d="M84.1,98.8c0,0,0,0.1,0,0.2c0,0-0.1,0-0.2,0c0,0,0-0.1,0-0.2C84,98.7,84,98.7,84.1,98.8z"/>
					</g>
					<g>
						<polygon fill="#303030" points="83.6,100.7 83.4,100.9 83.1,100.7 83.1,100.4 83.4,100.2 83.6,100.4 						"/>
						<path fill="#CDCDCD" d="M83.4,100.4c0.1,0,0.1,0.1,0.1,0.1c0,0.1-0.1,0.1-0.1,0.1c-0.1,0-0.1-0.1-0.1-0.1
							C83.2,100.5,83.3,100.4,83.4,100.4z"/>
					</g>
					<g>
						<polygon fill="#303030" points="84.3,102.1 84.3,102.5 83.9,102.6 83.7,102.3 83.8,102 84.1,101.9 						"/>
						<path fill="#CDCDCD" d="M83.9,102.1c0,0,0.1,0,0.2,0c0,0,0,0.1,0,0.2c0,0-0.1,0-0.2,0C83.9,102.2,83.9,102.2,83.9,102.1z"/>
					</g>
					<g>
						<polygon fill="#303030" points="85.8,102.6 85.9,102.9 85.8,103.2 85.4,103.2 85.3,102.9 85.4,102.6 						"/>
						<path fill="#CDCDCD" d="M85.5,102.9c0-0.1,0.1-0.1,0.1-0.1c0.1,0,0.1,0,0.1,0.1c0,0.1-0.1,0.1-0.1,0.1
							C85.5,103,85.5,103,85.5,102.9z"/>
					</g>
					<g>
						<polygon fill="#303030" points="87.1,101.9 87.4,102 87.5,102.3 87.3,102.6 87,102.5 86.9,102.1 						"/>
						<path fill="#CDCDCD" d="M87.1,102.3c0,0,0-0.1,0-0.2c0,0,0.1,0,0.2,0c0,0,0,0.1,0,0.2C87.2,102.3,87.1,102.3,87.1,102.3z"/>
					</g>
					<g>
						<polygon fill="#303030" points="87.6,100.4 87.8,100.2 88.1,100.4 88.1,100.7 87.8,100.9 87.6,100.7 						"/>
						<path fill="#CDCDCD" d="M87.8,100.6c-0.1,0-0.1-0.1-0.1-0.1c0-0.1,0.1-0.1,0.1-0.1c0.1,0,0.1,0.1,0.1,0.1
							C88,100.6,87.9,100.6,87.8,100.6z"/>
					</g>
					<g>
						<polygon fill="#303030" points="86.9,98.9 87,98.6 87.3,98.5 87.5,98.8 87.4,99.1 87.1,99.2 						"/>
						<path fill="#CDCDCD" d="M87.3,98.9c0,0-0.1,0-0.2,0c0,0,0-0.1,0-0.2c0,0,0.1,0,0.2,0C87.3,98.8,87.3,98.9,87.3,98.9z"/>
					</g>
				</g>
			</g>
			<path fill="#2B2B2B" d="M66.7,65.1c0,0.3-0.2,0.5-0.4,0.5l0,0c-0.2,0-0.4-0.2-0.4-0.5v-3.6c0-0.3,0.2-0.5,0.4-0.5l0,0
				c0.2,0,0.4,0.2,0.4,0.5V65.1z"/>
			<path fill="#2B2B2B" d="M66.7,86.8c0,0.3-0.2,0.5-0.4,0.5l0,0c-0.2,0-0.4-0.2-0.4-0.5v-3.6c0-0.3,0.2-0.5,0.4-0.5l0,0
				c0.2,0,0.4,0.2,0.4,0.5V86.8z"/>
			<rect x="65.4" y="95.9" fill="#565656" width="8.3" height="5.5"/>
			<rect x="155" y="95.9" fill="#565656" width="4.1" height="5.5"/>
		</g>
		<rect x="0.2" y="87" fill="#4F4F4F" width="29.5" height="3.4"/>
		<rect x="14.2" y="68.6" fill="#4F4F4F" width="1.4" height="19.5"/>
		<ellipse fill="#FFFFFF" cx="14.9" cy="63.9" rx="6.8" ry="7.1"/>
		<path fill="#4F4F4F" d="M14.9,71.8c-4.1,0-7.5-3.5-7.5-7.9c0-4.4,3.3-7.9,7.5-7.9c4.1,0,7.5,3.5,7.5,7.9
			C22.3,68.2,19,71.8,14.9,71.8z M14.9,57.5c-3.3,0-6,2.9-6,6.4c0,3.5,2.7,6.4,6,6.4c3.3,0,6-2.9,6-6.4
			C20.9,60.3,18.2,57.5,14.9,57.5z"/>
		<polygon fill="#E71F1F" points="16.7,65.9 10.7,60.8 17.1,65.3 		"/>
		<ellipse fill="#E71F1F" cx="14.9" cy="63.9" rx="0.7" ry="0.7"/>
		<g>
			<rect x="9.4" y="75.2" fill="#FFB669" width="11" height="11.7"/>
			<rect x="10.6" y="76.5" fill="#FF8712" width="8.5" height="9"/>
			<rect x="11.6" y="77.5" fill="#FFB669" width="6.6" height="7"/>
		</g>
		<g>
			<rect x="23.1" y="78.7" fill="#FFB669" width="11.1" height="11.7"/>
			<rect x="24.4" y="80.1" fill="#FF8712" width="8.5" height="9"/>
			<rect x="25.4" y="81.1" fill="#FFB669" width="6.6" height="7"/>
		</g>
		<g>
			<rect x="23.1" y="66.9" fill="#FFB669" width="11.1" height="11.7"/>
			<rect x="24.4" y="68.3" fill="#FF8712" width="8.5" height="9"/>
			<rect x="25.4" y="69.3" fill="#FFB669" width="6.6" height="7"/>
		</g>
		<rect x="157" y="126.4" fill="#E4E4E4" width="55" height="72.9"/>
		<polygon fill="#FFFFFF" points="157,198.8 120.2,198.8 120.2,126.4 137.8,112.2 157,126.4 		"/>
		<g>
			<rect x="127.2" y="140.2" fill="#FFFFFF" width="22.9" height="56.1"/>
			<path fill="#3A3A3A" d="M150.3,196.5h-23.4V140h23.4V196.5z M127.4,196h22.5v-55.6h-22.5V196z"/>
		</g>
		<rect x="170.6" y="146.3" fill="#A9A9A9" width="14.1" height="24.8"/>
		<rect x="186.7" y="146.3" fill="#A9A9A9" width="14.1" height="24.8"/>
		<polygon opacity="0.2" fill="#FFFFFF" points="186.7,171.1 186.7,146.3 200.9,146.3 		"/>
		<polygon opacity="0.2" fill="#FFFFFF" points="170.6,171.2 170.6,146.4 184.7,146.4 		"/>
		<path fill="#3A3A3A" d="M201,171.3h-14.5v-25.2H201V171.3z M186.9,171h13.8v-24.5h-13.8V171z"/>
		<rect x="129" y="197.4" fill="#AE7041" width="19.2" height="1.6"/>
		<rect x="128.8" y="142" fill="#DCDCDC" width="19.6" height="20.9"/>
		<rect x="131.1" y="144.4" fill="#FFFFFF" width="15" height="16"/>
		<rect x="128.9" y="172.4" fill="#DCDCDC" width="19.6" height="20.9"/>
		<rect x="131.1" y="174.8" fill="#FFFFFF" width="15" height="16"/>
		<path fill="#3A3A3A" d="M130.8,167.4c0,0.6-0.4,1-1,1c-0.5,0-1-0.4-1-1c0-0.6,0.4-1,1-1C130.4,166.4,130.8,166.8,130.8,167.4z"/>
		<g>
			<rect x="130.9" y="181.2" fill="#FFB669" width="15.3" height="16.2"/>
			<rect x="132.7" y="183.1" fill="#FF8712" width="11.8" height="12.4"/>
			<rect x="134" y="184.5" fill="#FFB669" width="9.1" height="9.7"/>
		</g>
		<polygon fill="#7A2808" points="193.4,112.2 137,112.2 157,126.4 213.4,126.4 		"/>
		<path fill="#3A3A3A" d="M184.9,171.3h-14.5v-25.2h14.5V171.3z M170.7,171h13.8v-24.5h-13.8V171z"/>
		<g>
			<rect x="0" y="130.4" fill="#ECEDB7" width="73.1" height="85.5"/>
			<g>
				<linearGradient id="SVGID_1_" gradientUnits="userSpaceOnUse" x1="19.3763" y1="152.8462" x2="19.3763" y2="146.4324">
					<stop  offset="0" style="stop-color:#070707"/>
					<stop  offset="1" style="stop-color:#45494D"/>
				</linearGradient>
				<path fill="url(#SVGID_1_)" d="M15.5,146.4h1.6l0.6,3.6l0.8-3.6h1.6L21,150l0.6-3.6h1.6l-1.2,6.4h-1.7l-1-4l-1,4h-1.7
					L15.5,146.4z"/>
				<linearGradient id="SVGID_2_" gradientUnits="userSpaceOnUse" x1="26.1995" y1="152.8462" x2="26.1995" y2="146.4324">
					<stop  offset="0" style="stop-color:#070707"/>
					<stop  offset="1" style="stop-color:#45494D"/>
				</linearGradient>
				<path fill="url(#SVGID_2_)" d="M27.1,151.8h-1.9l-0.3,1.1h-1.7l2.1-6.4h1.8l2.1,6.4h-1.8L27.1,151.8z M26.8,150.4l-0.6-2.3
					l-0.6,2.3H26.8z"/>
				<linearGradient id="SVGID_3_" gradientUnits="userSpaceOnUse" x1="32.4417" y1="152.8462" x2="32.4417" y2="146.4324">
					<stop  offset="0" style="stop-color:#070707"/>
					<stop  offset="1" style="stop-color:#45494D"/>
				</linearGradient>
				<path fill="url(#SVGID_3_)" d="M29.7,152.8v-6.4h2.8c0.5,0,0.9,0.1,1.2,0.2c0.3,0.1,0.5,0.3,0.7,0.6c0.2,0.3,0.3,0.6,0.3,1
					c0,0.4-0.1,0.7-0.2,0.9c-0.1,0.3-0.3,0.5-0.5,0.6c-0.1,0.1-0.3,0.2-0.6,0.3c0.2,0.1,0.3,0.2,0.4,0.2c0.1,0.1,0.2,0.2,0.3,0.3
					c0.1,0.2,0.2,0.3,0.2,0.4l0.8,1.9h-1.9l-0.9-2c-0.1-0.3-0.2-0.4-0.3-0.5c-0.1-0.1-0.3-0.1-0.4-0.1h-0.1v2.6H29.7z M31.4,149h0.7
					c0.1,0,0.2,0,0.4-0.1c0.1,0,0.2-0.1,0.3-0.2c0.1-0.1,0.1-0.2,0.1-0.4c0-0.2-0.1-0.4-0.2-0.5c-0.1-0.1-0.3-0.2-0.6-0.2h-0.7V149z
					"/>
				<linearGradient id="SVGID_4_" gradientUnits="userSpaceOnUse" x1="38.313" y1="152.8462" x2="38.313" y2="146.4324">
					<stop  offset="0" style="stop-color:#070707"/>
					<stop  offset="1" style="stop-color:#45494D"/>
				</linearGradient>
				<path fill="url(#SVGID_4_)" d="M35.7,146.4h1.6l2.1,3.5v-3.5h1.6v6.4h-1.6l-2.1-3.5v3.5h-1.6V146.4z"/>
				<linearGradient id="SVGID_5_" gradientUnits="userSpaceOnUse" x1="42.9763" y1="152.8462" x2="42.9763" y2="146.4324">
					<stop  offset="0" style="stop-color:#070707"/>
					<stop  offset="1" style="stop-color:#45494D"/>
				</linearGradient>
				<path fill="url(#SVGID_5_)" d="M42.1,146.4h1.7v6.4h-1.7V146.4z"/>
				<linearGradient id="SVGID_6_" gradientUnits="userSpaceOnUse" x1="47.6736" y1="152.8462" x2="47.6736" y2="146.4324">
					<stop  offset="0" style="stop-color:#070707"/>
					<stop  offset="1" style="stop-color:#45494D"/>
				</linearGradient>
				<path fill="url(#SVGID_6_)" d="M45.1,146.4h1.6l2.1,3.5v-3.5h1.6v6.4h-1.6l-2.1-3.5v3.5h-1.6V146.4z"/>
				<linearGradient id="SVGID_7_" gradientUnits="userSpaceOnUse" x1="54.0033" y1="152.9554" x2="54.0033" y2="146.3228">
					<stop  offset="0" style="stop-color:#070707"/>
					<stop  offset="1" style="stop-color:#45494D"/>
				</linearGradient>
				<path fill="url(#SVGID_7_)" d="M54.2,150.5v-1.3h2.6v2.7c-0.5,0.4-0.9,0.7-1.3,0.8c-0.4,0.1-0.8,0.2-1.4,0.2
					c-0.7,0-1.2-0.1-1.6-0.4c-0.4-0.3-0.7-0.6-1-1.2c-0.2-0.5-0.3-1.1-0.3-1.8c0-0.7,0.1-1.3,0.4-1.8c0.2-0.5,0.6-0.9,1.1-1.2
					c0.4-0.2,0.9-0.3,1.5-0.3c0.6,0,1.1,0.1,1.4,0.2c0.3,0.1,0.6,0.3,0.7,0.6c0.2,0.3,0.3,0.6,0.4,1l-1.6,0.3
					c-0.1-0.2-0.2-0.4-0.3-0.6c-0.2-0.1-0.4-0.2-0.6-0.2c-0.4,0-0.7,0.2-0.9,0.5c-0.2,0.3-0.3,0.8-0.3,1.4c0,0.7,0.1,1.2,0.3,1.5
					c0.2,0.3,0.5,0.4,0.9,0.4c0.2,0,0.4,0,0.5-0.1c0.2-0.1,0.4-0.2,0.6-0.3v-0.6H54.2z"/>
			</g>
			<g>
				<path fill="#FFFF00" d="M66.4,133.8H6.7H3v4.4V208v4.4h3.7h59.7h3.7V208v-69.8v-4.4H66.4z M66.4,208H6.7v-69.8h59.7V208z"/>
				<path fill="#2B2D2F" d="M66.4,169.8l3.7-4.4v-3.4l-3.7,4.4V169.8z M59,138.2l3.7-4.4h-2.9l-3.7,4.4H59z M66.4,163.1l3.7-4.4
					v-3.4l-3.7,4.4V163.1z M66.4,156.4l3.7-4.4v-3.4l-3.7,4.4V156.4z M66.4,149.7l3.7-4.4V142l-3.7,4.4V149.7z M30.3,138.2l3.7-4.4
					h-2.9l-3.7,4.4H30.3z M53.3,138.2l3.7-4.4h-2.9l-3.7,4.4H53.3z M36,138.2l3.7-4.4h-2.9l-3.7,4.4H36z M47.5,138.2l3.7-4.4h-2.9
					l-3.7,4.4H47.5z M41.8,138.2l3.7-4.4h-2.9l-3.7,4.4H41.8z M24.5,138.2l3.7-4.4h-2.9l-3.7,4.4H24.5z M64.7,138.2l3.7-4.4h-2.1
					h-0.8l-3.7,4.4H64.7z M6.7,138.2h0.6l3.7-4.4H8.2L3,139.9v3.4l3.7-4.4V138.2z M66.4,176.6l3.7-4.4v-3.4l-3.7,4.4V176.6z
					 M7.9,208l-3.7,4.4h2.5h0.4l3.7-4.4H7.9z M6.7,202.7L3,207.1v0.9v2.4l3.7-4.4V202.7z M3,133.8v2.7l2.3-2.7H3z M66.4,183.3
					l3.7-4.4v-3.4l-3.7,4.4V183.3z M66.4,190l3.7-4.4v-3.4l-3.7,4.4V190z M66.4,139.6v3.4l3.7-4.4v-0.4v-2.9L66.4,139.6z
					 M66.4,203.4l3.7-4.4v-3.4l-3.7,4.4V203.4z M66.4,196.7l3.7-4.4V189l-3.7,4.4V196.7z M30.9,208l-3.7,4.4H30l3.7-4.4H30.9z
					 M42.4,208l-3.7,4.4h2.9l3.7-4.4H42.4z M13.7,208l-3.7,4.4h2.9l3.7-4.4H13.7z M19.4,208l-3.7,4.4h2.9l3.7-4.4H19.4z M25.1,208
					l-3.7,4.4h2.9L28,208H25.1z M36.6,208l-3.7,4.4h2.9l3.7-4.4H36.6z M48.1,208l-3.7,4.4h2.9L51,208H48.1z M66.4,208h-1.1l-3.7,4.4
					h2.9l5.6-6.6v-3.4l-3.7,4.4V208z M70.1,212.4v-3.2l-2.8,3.2H70.1z M18.8,138.2l3.7-4.4h-2.9l-3.7,4.4H18.8z M59.6,208l-3.7,4.4
					h2.9l3.7-4.4H59.6z M53.8,208l-3.7,4.4H53l3.7-4.4H53.8z M6.7,196L3,200.4v3.4l3.7-4.4V196z M6.7,149L3,153.4v3.4l3.7-4.4V149z
					 M6.7,142.3L3,146.6v3.4l3.7-4.4V142.3z M6.7,162.4L3,166.8v3.4l3.7-4.4V162.4z M13.1,138.2l3.7-4.4h-2.9l-3.7,4.4H13.1z
					 M6.7,155.7L3,160.1v3.4l3.7-4.4V155.7z M6.7,169.2L3,173.5v3.4l3.7-4.4V169.2z M6.7,182.6L3,186.9v3.4l3.7-4.4V182.6z
					 M6.7,189.3L3,193.7v3.4l3.7-4.4V189.3z M6.7,175.9L3,180.2v3.4l3.7-4.4V175.9z"/>
			</g>
		</g>
	</g>
	<text id="driverLabel" transform="matrix(1.0198 0 0 1 10.4773 169.1872)"><tspan x="0" y="0" font-family="'Stencil'" font-size="12">DRIVERS</tspan><tspan x="10.4" y="14.4" font-family="'Stencil'" font-size="12">*VAN</tspan><tspan x="9.8" y="28.8" font-family="'Stencil'" font-size="12">*HGV</tspan></text>
	<text id="deliveryLabel" transform="matrix(1 0 0 1 52.6765 32.8537)"><tspan x="0" y="0" font-family="'Stencil'" font-size="11">DELIVERY </tspan><tspan x="15.6" y="13.2" font-family="'Stencil'" font-size="11">MAN</tspan></text>
</g>
<style>
	.hidden{
		visibility: hidden;
	}
	
</style>
</svg>



