<?xml version="1.0" encoding="utf-8"?>
<!-- Generator: Adobe Illustrator 18.0.0, SVG Export Plug-In . SVG Version: 6.00 Build 0)  -->
<!DOCTYPE svg PUBLIC "-//W3C//DTD SVG 1.1//EN" "http://www.w3.org/Graphics/SVG/1.1/DTD/svg11.dtd">
<svg version="1.1" id="Layer_1" xmlns="http://www.w3.org/2000/svg" xmlns:xlink="http://www.w3.org/1999/xlink" x="0px" y="0px"
	 viewBox="0 0 250 10" enable-background="new 0 0 250 10" xml:space="preserve">
<g>
	<path fill="#39282A" d="M248,5.8c-0.4,0-57.9-2.2-59.2-2.2c-1.2,0-2.2,1-2.2,2.2c0,1.2,1,2.2,2.2,2.2C190.1,8,248,5.8,248,5.8
		L248,5.8z M187.4,5.8c0-0.8,0.7-1.5,1.5-1.5c0.7,0,22.5,0.8,39.4,1.5H187.4z"/>
	<path fill="#39282A" d="M3.5,5.8c0,0,58,2.2,59.2,2.2c1.2,0,2.2-1,2.2-2.2c0-1.2-1-2.2-2.2-2.2C61.4,3.6,3.9,5.8,3.5,5.8L3.5,5.8z
		 M23.3,5.8c16.9-0.7,38.6-1.5,39.4-1.5c0.8,0,1.5,0.7,1.5,1.5H23.3z"/>
	<path fill="#39282A" d="M181.4,1.6c-2.3,0-4.2,1.9-4.2,4.2s1.9,4.2,4.2,4.2c2.3,0,4.2-1.9,4.2-4.2S183.7,1.6,181.4,1.6z M181.4,4.7
		c-1.2,0-2.4,0.2-3.4,0.6c0.2-1.7,1.6-3,3.4-3c1.7,0,3.2,1.3,3.4,3C183.8,5,182.7,4.7,181.4,4.7z"/>
	<path fill="#39282A" d="M69.8,1.6c-2.3,0-4.2,1.9-4.2,4.2s1.9,4.2,4.2,4.2c2.3,0,4.2-1.9,4.2-4.2S72.1,1.6,69.8,1.6z M69.8,4.7
		c-1.2,0-2.4,0.2-3.4,0.6c0.2-1.7,1.6-3,3.4-3c1.7,0,3.2,1.3,3.4,3C72.2,5,71,4.7,69.8,4.7z"/>
	<text transform="matrix(1 0 0 1 80.6878 8.0475)" font-family="'MyriadPro-Regular'" font-size="8.9333">Industry tailored service</text>
</g>
</svg>
