<?xml version="1.0" encoding="utf-8"?>
<!-- Generator: Adobe Illustrator 18.0.0, SVG Export Plug-In . SVG Version: 6.00 Build 0)  -->
<!DOCTYPE svg PUBLIC "-//W3C//DTD SVG 1.1//EN" "http://www.w3.org/Graphics/SVG/1.1/DTD/svg11.dtd">
<svg version="1.1" id="Layer_1" xmlns="http://www.w3.org/2000/svg" xmlns:xlink="http://www.w3.org/1999/xlink" x="0px" y="0px"
	 viewBox="0 0 640 480" enable-background="new 0 0 640 480" xml:space="preserve">
<g>
	<g>
		<g>
			<g>
				<path fill="#000102" d="M246.8,352.7c-25.2-45.8-64-55.1-83-41.3c-10,6.4-17.2,19.2-20.2,36.4c-3.1,17.5,3.1,37,16.8,41.2
					c5.2,1.6,12.2-0.1,17.2-5.8c4.7-5.4,7.5-12.4,7-21.3l-0.1,0.3c0.1,3.9-0.2,12.7-7,20.6c-4.2,4.9-11,7.6-17,5.8
					c-9.9-3-20.2-18-16.2-40.7c2.4-13.6,8.4-25.8,20.5-34.1c18.2-12.5,58.9-0.9,81.1,41.5C246.3,354.4,246.6,353.6,246.8,352.7z"/>
			</g>
			<path fill="#000102" d="M313.8,335.9c-12.3,24.5-26.1,40.3-41.5,43.9c-30.1,7.1-52.3-20.1-75.7-42.1
				c-11.2-10.6-21.8-20.6-31.1-25.7c-19.8-10.9-42.3-11.1-58.8-0.6c-11,7-19.9,17.6-23,31.4c-6.7,30.4,5.1,43.2,9.8,47.1
				c7,5.8,16.2,5.6,21-0.3c3.6-4.5,5-11.7,1.8-19.8c-2-4.2-12.8-10.4-17.1,1.9c0.1-3.8,2.1-6.9,5.4-8.1c4.1-1.5,10-0.4,13.1,5.8
				c3.5,9,2.3,16.7-1.9,21.9c-5.4,6.7-15.5,6.9-23.2,0.6c-5.1-4.2-18.6-18.4-11.6-50.3c3.2-14.5,12-26.2,23.4-33.5
				c17-10.9,41.5-9.5,61.7,1.7c9.5,5.2,20.1,15.3,31.4,25.9c23.1,21.7,49.2,46.4,74.9,40c14.8-3.7,27.8-17.1,39.8-41.2L313.8,335.9z
				"/>
		</g>
		<g>
			<g>
				<path fill="#000102" d="M373.7,352.8c25.2-45.7,64-55.1,83.1-41.3c10,6.4,17.2,19.3,20.2,36.4c3.1,17.5-3.1,37-16.9,41.2
					c-5.2,1.6-12.2-0.1-17.2-5.8c-4.7-5.4-7.5-12.4-7-21.3c0,0,0.1,0.3,0.1,0.3c-0.1,3.9,0.2,12.7,7,20.6c4.2,4.9,11,7.6,17,5.8
					c9.9-3,20.2-18,16.2-40.7c-2.4-13.6-8.4-25.8-20.5-34.1c-18.2-12.5-58.9-0.9-81.1,41.4C374.2,354.5,374,353.6,373.7,352.8z"/>
			</g>
			<path fill="#000102" d="M306.7,335.9c12.2,24.6,26.1,40.3,41.4,43.9c30.1,7.1,52.3-20.1,75.7-42.1c11.2-10.6,21.8-20.5,31.1-25.7
				c19.8-10.9,42.3-11.1,58.8-0.5c10.9,7,19.9,17.6,22.9,31.5c6.7,30.4-5.1,43.2-9.8,47.1c-7,5.8-16.2,5.6-21-0.3
				c-3.6-4.5-4.9-11.7-1.8-19.8c2-4.2,12.8-10.4,17.1,1.9c-0.1-3.8-2.1-6.9-5.3-8.1c-4.1-1.5-10-0.4-13.1,5.8
				c-3.5,9-2.3,16.7,1.9,21.9c5.3,6.7,15.5,6.9,23.2,0.6c5.1-4.2,18.7-18.3,11.6-50.3c-3.2-14.5-12-26.2-23.4-33.5
				c-17-10.9-41.5-9.5-61.7,1.6c-9.5,5.2-20.1,15.3-31.4,25.9c-23.1,21.7-49.2,46.3-74.9,39.9c-14.8-3.7-27.8-17.2-39.8-41.2
				L306.7,335.9z"/>
		</g>
		<path fill="#000102" d="M278,374.2c9.8-1.8,18.7-9.2,25.5-18.5c2.5-3.4,4.7-7.3,6.8-11.2c2,4,4.2,7.8,6.8,11.2
			c6.8,9.3,15.7,16.7,25.5,18.5c20.3,3.8,39.5-19,39.3-46.1c-0.1-11.5-4.5-24.1-13.1-28c-11.5-5.2-21,1.8-25.9,14.1
			c-3.5,8.7-8.9,16-17.2,9.7c1.3,4.2,2.4,6.1,4.1,7.9c2.1,2.3,4.3,2.9,6.9,2.1c5.6-1.5,9.2-8.6,11.2-15.2c0.8,9.2,8,19.9,16.7,14.1
			c-6.1-1.9-11.6-10.5-10.9-19.2c0.7-8.2,8.8-11.7,14.2-9.2c8.7,4.1,12,17.9,11.5,29c-0.7,15-9.8,28-19.6,34.2
			c-12.6,8-26.8,2-36.9-9.6c-4.1-4.7-7.9-10.6-10.9-16.9c3.1-2.4,7.9-12.7,8.9-18.2c0,0-0.9-2.3-2.1-2.1
			c-0.1-10.4-4.1-26.4-9.1-28.7c-4.1,2.1-8.3,21.1-7.7,28.6c-1.4,0.1-2.1,2-2.1,2c1.4,9.9,6.2,15.8,8.8,18.5
			c-3,6.3-6.8,12.1-10.9,16.9c-10.1,11.6-24.3,17.5-36.9,9.5c-9.8-6.2-18.9-19.2-19.5-34.3c-0.5-11.2,2.8-25,11.5-29
			c5.4-2.5,13.5,1,14.2,9.2c0.7,8.7-4.8,17.3-10.9,19.2c8.6,5.7,15.8-5,16.7-14.1c2,6.5,5.6,13.7,11.2,15.2c2.7,0.7,4.8,0.2,6.9-2.1
			c1.7-1.8,2.7-3.7,4.1-7.9c-8.3,6.3-13.7-1-17.2-9.7c-5-12.3-14.5-19.3-26-14.1c-8.5,3.9-13,16.5-13.1,28
			C238.5,355.2,257.6,378,278,374.2z M309.9,298.6c4.6,8.4,7.1,27.6,0.4,39.1C305,330.4,303.6,307,309.9,298.6z"/>
	</g>
	<g>
		<path fill="#000102" d="M308.1,124c11.3-10.9,31.9-11,56.8-2.1c-2.4-3.9-10.5-13.8-14.9-9.2c-0.4-7.6-10.2-12-15.6-5.9
			c-10.2,5.5-7.3-6.9-18.2-3.6c8.8-5,3.5-17.4,16-15.4c-3.1-4.4-12-8.4-17.1-4.6c1.1-7.5-3.4-14.4-6.1-20.7L308.1,124z"/>
		<path fill="#000102" d="M304.6,124c-11.3-10.9-31.9-11-56.8-2.1c2.4-3.9,10.5-13.8,14.9-9.2c0.4-7.6,10.2-12,15.6-5.9
			c10.2,5.5,7.3-6.9,18.2-3.6c-8.8-5-3.5-17.4-16-15.4c3.1-4.4,12-8.4,17.1-4.6c-1.1-7.5,3.4-14.4,6.1-20.7L304.6,124z"/>
		<g>
			<path fill="#000102" d="M274.6,121.6c-34.4,0-57.2,22.7-83.1,39.7c-3-4.4-4.9-9.4-4.9-15.3c0-6.9,4-15.6,4-15.6
				s-5.9,6.9-5.9,16.1c0,3.7,0.6,10.2,4,16.5c-14.9,9.4-30.9,16.8-50.8,16.8c-56.2,0-59.4-37.7-59.4-40.5c0-2.8,2-19.3,19.4-19.3
				c25.3,0,21.2,18.8,44.7,19c17.5,0.2,18.1-14.2,18.1-14.2s-3.4,9.2-17.5,9.2c-14.1,0-18.5-17.7-39.1-17.7
				c-20.5,0-27.6,10.6-27.6,23.7c0,13.1,8.8,42.7,63,42.7c21.1,0,37.7-6.5,52.4-15.1c6,7.3,17.1,13.4,37.3,13.4
				c16.1,0,26.2-5.2,32.5-11.4c4.8,6.1,13.1,11.6,27.3,11.6c29.1,0,28.5-23,28.3-27.9C316.8,142,309.6,121.6,274.6,121.6z
				 M261.1,164.6c-2.4-3.9-3.7-9.2-3.7-11c0-4.6,1.9-9,6.3-9s5.1,2.8,5.1,6.4C268.8,154.8,265.9,159.9,261.1,164.6z M288.9,178.7
				c-12.7-0.5-20.7-5.1-25.5-10.8c5.9-6.7,7.7-14,7.7-16.9c0-5.8-2.4-9.4-7.9-9.6c-7-0.2-8.7,7.1-8.7,12.2c0,3,1,9.1,4.8,12.6
				c-7.3,6.4-18.4,11.7-32,11.7c-12.3,0-24.5-4.4-32.3-12.2c27.9-17.2,48.7-41.1,79.1-41.3c36.5-0.1,40.2,25.4,40.4,31.2
				C314.7,162.6,308.8,179.4,288.9,178.7z"/>
			<path fill="#000102" d="M208.3,138c-10.1,8.7-34.3,29.5-74.9,29.5c-28.9,0-30.6-14.2-30.6-17.7c0-3.5,2.9-6.3,9.3-7.1
				c0,0-13.2-2.9-13.2,8.1c0,11,7.9,20.8,32.8,20.2C164.5,170.1,195.3,155.3,208.3,138z"/>
		</g>
		<g>
			<path fill="#000102" d="M294.9,153.5c0,5,0.8,28,28.4,27.7c14.1-0.1,22.4-5.4,27.3-11.6c6.3,6.2,16.4,11.4,32.5,11.4
				c20.2,0,31.3-6.1,37.3-13.4c14.7,8.6,31.4,15.1,52.4,15.1c54.2,0,63-29.6,63-42.7c0-13.1-7.1-23.7-27.6-23.7
				c-20.5,0-24.9,17.7-39.1,17.7c-14.1,0-17.5-9.2-17.5-9.2s0.5,14.5,18.1,14.2c23.6-0.3,19.5-19,44.7-19
				c17.3,0,19.4,16.5,19.4,19.3c0,2.8-3.2,40.5-59.4,40.5c-19.9,0-36-7.4-50.9-16.8c3.4-6.3,4-12.7,4-16.5c0-9.2-5.9-16.1-5.9-16.1
				s4,8.7,4,15.6c0,5.9-1.9,10.9-4.9,15.3c-26-17-48.8-39.7-83.1-39.7C302.6,121.6,294.9,141,294.9,153.5z M343.5,151
				c0-3.5,0.7-6.4,5.1-6.4s6.3,4.4,6.3,9c0,1.8-1.2,7.2-3.7,11C346.3,159.9,343.5,154.8,343.5,151z M297.6,155.5
				c-0.5-8.9,4-31.2,40.5-31c30.3,0.1,51.2,24.1,79.1,41.3c-7.8,7.8-19.9,12.2-32.3,12.2c-13.6,0-24.6-5.3-32-11.7
				c3.8-3.5,4.8-9.6,4.8-12.6c0-5-1.7-12.4-8.7-12.2c-5.6,0.2-7.9,3.7-7.9,9.6c0,2.9,1.8,10.2,7.7,16.9
				c-4.8,5.7-12.8,10.3-25.5,10.8C303.4,179.4,298,163.1,297.6,155.5z"/>
			<path fill="#000102" d="M404,138c10.1,8.7,34.3,29.5,74.9,29.5c28.9,0,30.6-14.2,30.6-17.7c0-3.5-2.9-6.3-9.3-7.1
				c0,0,13.2-2.9,13.2,8.1c0,11-7.9,20.8-32.8,20.2C447.7,170.1,417,155.3,404,138z"/>
		</g>
	</g>
	<text transform="matrix(0.9438 0 0 1 206.9107 273.7112)" fill="#000102" font-family="'Benjamin-Regular'" font-size="90.7501">NUX</text>
</g>
</svg>
